<?xml version="1.0" standalone="no"?>
<!DOCTYPE svg PUBLIC "-//W3C//DTD SVG 1.1//EN" "http://www.w3.org/Graphics/SVG/1.1/DTD/svg11.dtd" >
<svg xmlns="http://www.w3.org/2000/svg">
<metadata>Generated by IcoMoon</metadata>
<defs>
<font id="feathericon" horiz-adv-x="1024">
<font-face units-per-em="1024" ascent="896" descent="-128" />
<missing-glyph horiz-adv-x="1024" />
<glyph unicode="&#x20;" horiz-adv-x="400" d="" />
<glyph unicode="&#xf100;" glyph-name="arrow-down" horiz-adv-x="682" d="M86 598l256-256 256 256 84-86-340-342-342 342z" />
<glyph unicode="&#xf101;" glyph-name="arrow-left" horiz-adv-x="426" d="M342 726l84-86-256-256 256-256-84-86-342 342z" />
<glyph unicode="&#xf102;" glyph-name="arrow-right" horiz-adv-x="426" d="M86 726l340-342-340-342-86 86 256 256-256 256z" />
<glyph unicode="&#xf103;" glyph-name="arrow-up" horiz-adv-x="682" d="M0 256l342 342 340-342-84-86-256 256-256-256z" />
<glyph unicode="&#xf104;" glyph-name="artboard" horiz-adv-x="768" d="M128 214v340h-86c-24 0-42 20-42 44s18 42 42 42h86v86c0 24 18 42 42 42s44-18 44-42v-86h340v86c0 24 20 42 44 42s42-18 42-42v-86h86c24 0 42-18 42-42s-18-44-42-44h-86v-340h86c24 0 42-20 42-44s-18-42-42-42h-86v-86c0-24-18-42-42-42s-44 18-44 42v86h-340v-86c0-24-20-42-44-42s-42 18-42 42v86h-86c-24 0-42 18-42 42s18 44 42 44h86zM214 214h340v340h-340v-340z" />
<glyph unicode="&#xf105;" glyph-name="bar" horiz-adv-x="768" d="M0 214h768v-86h-768v86zM0 426h768v-84h-768v84zM0 640h768v-86h-768v86z" />
<glyph unicode="&#xf106;" glyph-name="bar-chart" horiz-adv-x="768" d="M86 86h640c24 0 42-20 42-44s-18-42-42-42h-684c-24 0-42 18-42 42v342c0 24 18 42 42 42s44-18 44-42v-298zM298 256c0-24-18-42-42-42s-42 18-42 42v384c0 24 18 42 42 42s42-18 42-42v-384zM384 256v298c0 24 18 44 42 44s44-20 44-44v-298c0-24-20-42-44-42s-42 18-42 42zM554 726c0 24 20 42 44 42s42-18 42-42v-470c0-24-18-42-42-42s-44 18-44 42v470z" />
<glyph unicode="&#xf107;" glyph-name="beer" horiz-adv-x="768" d="M598 214v-128c0-46-40-86-86-86h-426c-46 0-86 40-86 86v596c0 48 38 86 86 86h426c48 0 86-38 86-86v-84h84c48 0 86-38 86-86v-214c0-48-38-84-86-84h-84zM86 682v-128h426v128h-426zM86 470v-384h426v384h-426zM256 214c0-24-18-44-42-44s-44 20-44 44v128c0 24 20 42 44 42s42-18 42-42v-128zM426 214c0-24-18-44-42-44s-42 20-42 44v128c0 24 18 42 42 42s42-18 42-42v-128zM598 512v-214h84v214h-84z" />
<glyph unicode="&#xf108;" glyph-name="bell" horiz-adv-x="682" d="M470 128v-42c0-70-58-128-128-128s-128 58-128 128v42h-172c-24 0-42 18-42 42s18 44 42 44h44v256c0 126 90 232 212 252v46c0 24 20 42 44 42s42-18 42-42v-46c122-20 214-126 214-252v-256h42c24 0 42-20 42-44s-18-42-42-42h-170zM170 214h342v256c0 94-76 170-170 170s-172-76-172-170v-256zM342 42c24 0 42 20 42 44v42h-86v-42c0-24 20-44 44-44z" />
<glyph unicode="&#xf109;" glyph-name="book" d="M470 214l298 2v424h-220l-78-78v-348zM384 562l-78 76-220 2v-424l298-2v348zM342 724l84-84 86 86h256c48 0 86-38 86-86v-424c0-46-40-86-86-86l-256-2-86-86-84 86-258 2c-46 0-84 40-84 86v424c0 48 38 86 86 86 0 0 86 0 256-2z" />
<glyph unicode="&#xf10b;" glyph-name="browser" d="M86 470v-342h682v342h-682zM86 640v-86h84v86h-84zM256 640v-86h512v86h-512zM86 726h682c48 0 86-38 86-86v-512c0-48-38-86-86-86h-682c-48 0-86 38-86 86v512c0 48 38 86 86 86z" />
<glyph unicode="&#xf10c;" glyph-name="brush" horiz-adv-x="768" d="M96 212c-8-12-10-26-10-42 0-48 36-84 84-84 16 0 30 2 42 10-4-50-44-90-94-96h-118v106c0 56 42 100 96 106zM682 768c46 0 86-44 86-86l-554-554-86 86z" />
<glyph unicode="&#xf10d;" glyph-name="bug" horiz-adv-x="768" d="M128 256h-86c-24 0-42 18-42 42s18 44 42 44h86v56c-14-4-30-2-42 10l-62 62c-16 16-16 44 0 60s46 16 62 0l48-48c14 68 56 126 114 162l-52 52c-16 16-16 44 0 60s44 16 60 0l78-78c16 4 32 4 50 4s34 0 50-4l78 78c16 16 44 16 60 0s16-44 0-60l-52-52c58-36 100-94 114-162l48 48c16 16 46 16 62 0s16-44 0-60l-62-62c-12-12-28-14-42-10v-56h86c24 0 42-20 42-44s-18-42-42-42h-86c0-20-4-40-8-60 16 8 36 6 50-8l62-60c16-16 16-44 0-60s-46-16-62 0l-60 60c-4 4-6 10-8 14-42-84-130-142-230-142s-188 58-230 142c-2-4-4-10-8-14l-60-60c-16-16-46-16-62 0s-16 44 0 60l62 60c14 14 34 16 50 8-4 20-8 40-8 60zM550 470c-18 74-86 128-166 128s-148-54-166-128h332zM550 214h-332c18-74 86-128 166-128s148 54 166 128z" />
<glyph unicode="&#xf10e;" glyph-name="building" horiz-adv-x="682" d="M86 810h512c48 0 84-36 84-84v-768h-682v768c0 48 38 84 86 84zM86 42h170v172h170v-172h172v684h-512v-684zM384 640h128v-128h-128v128zM170 426h128v-128h-128v128zM384 426h128v-128h-128v128zM170 640h128v-128h-128v128z" />
<glyph unicode="&#xf10f;" glyph-name="calendar" horiz-adv-x="768" d="M214 726h340v84h86v-84h42c48 0 86-38 86-86v-598c0-48-38-84-86-84h-596c-48 0-86 36-86 84v598c0 48 38 86 86 86h42v84h86v-84zM86 554v-512h596v512h-596zM170 426h86v-84h-86v84zM342 426h84v-84h-84v84zM512 426h86v-84h-86v84zM512 256h86v-86h-86v86zM342 256h84v-86h-84v86zM170 256h86v-86h-86v86z" />
<glyph unicode="&#xf110;" glyph-name="camera" horiz-adv-x="768" d="M86 0c-48 0-86 38-86 86v596c0 48 38 86 86 86h596c48 0 86-38 86-86v-596c0-48-38-86-86-86h-596zM598 682v-84h84v84h-84zM384 170c118 0 214 96 214 214s-96 214-214 214-214-96-214-214 96-214 214-214zM384 256c-70 0-128 58-128 128s58 128 128 128 128-58 128-128-58-128-128-128z" />
<glyph unicode="&#xf111;" glyph-name="check" horiz-adv-x="682" d="M86 470l170-172 342 342 84-86-426-426-256 256z" />
<glyph unicode="&#xf113;" glyph-name="clock" d="M426-42c-236 0-426 190-426 426s190 426 426 426 428-190 428-426-192-426-428-426zM768 384c0 188-154 342-342 342s-340-154-340-342 152-342 340-342 342 154 342 342zM598 426c24 0 42-18 42-42s-18-42-42-42h-128c-46 0-86 38-86 84v172c0 24 18 42 42 42s44-18 44-42v-172h128z" />
<glyph unicode="&#xf114;" glyph-name="close" horiz-adv-x="604" d="M242 380l-242 242 60 60 242-240 242 240 60-60-242-242 242-240-60-60-242 240-242-240-60 60z" />
<glyph unicode="&#xf115;" glyph-name="cloud" d="M458 482l-46-66-70 42c-14 8-28 12-44 12-48 0-84-38-84-86v-86h-86c-24 0-42-18-42-42s18-42 42-42h470c94 0 170 76 170 170s-76 170-170 170c-56 0-108-26-140-72zM598 640c142 0 256-114 256-256s-114-256-256-256h-470c-70 0-128 58-128 128s58 128 128 128c0 94 76 170 170 170 32 0 64-8 90-24 46 66 122 110 210 110z" />
<glyph unicode="&#xf116;" glyph-name="cocktail" horiz-adv-x="682" d="M384 86h128c24 0 42-20 42-44s-18-42-42-42h-342c-24 0-42 18-42 42s18 44 42 44h128v288l-264 198c-22 16-34 42-34 68v42c0 48 38 86 86 86h512c48 0 84-38 84-86v-42c0-26-12-52-34-68l-264-198v-288zM86 682v-42l256-170 256 170v42h-512z" />
<glyph unicode="&#xf117;" glyph-name="code" horiz-adv-x="768" d="M768 398l-242-240-60 60 182 180-182 182 60 60zM120 398l182-180-60-60-242 240 242 242 60-60z" />
<glyph unicode="&#xf118;" glyph-name="columns" d="M86 726h682c48 0 86-38 86-86v-512c0-48-38-86-86-86h-682c-48 0-86 38-86 86v512c0 48 38 86 86 86zM598 640v-512h170v512h-170zM86 640v-512h170v512h-170zM342 640v-512h170v512h-170z" />
<glyph unicode="&#xf119;" glyph-name="comment" horiz-adv-x="768" d="M182 96l-96-96v178c-54 62-86 142-86 228 0 200 172 362 384 362s384-162 384-362-172-364-384-364c-74 0-144 20-202 54z" />
<glyph unicode="&#xf11a;" glyph-name="commenting" horiz-adv-x="768" d="M86 0v178c-54 62-86 142-86 228 0 200 172 362 384 362s384-162 384-362-172-364-384-364c-74 0-144 20-202 54zM384 128c164 0 298 124 298 278s-134 276-298 276-298-122-298-276 134-278 298-278zM278 342c-36 0-64 28-64 64s28 64 64 64 64-28 64-64-28-64-64-64zM490 342c-36 0-64 28-64 64s28 64 64 64 64-28 64-64-28-64-64-64z" />
<glyph unicode="&#xf11b;" glyph-name="comments" d="M102 272l-60-58v118c-28 40-42 88-42 138 0 142 124 256 278 256 138 0 254-96 274-218 14 2 30 4 46 4 142 0 256-104 256-234 0-48-18-92-44-130v-106l-52 52c-44-32-98-52-160-52-120 0-222 78-250 180-22-6-46-8-70-8-66 0-128 22-176 58zM278 298c108 0 192 80 192 172s-84 170-192 170-192-78-192-170 84-172 192-172zM428 254c12-70 84-126 170-126 96 0 170 68 170 150s-74 148-170 148c-16 0-32-2-48-6-14-70-60-128-122-166z" />
<glyph unicode="&#xf11d;" glyph-name="desktop" d="M470 128h84c24 0 44-18 44-42s-20-44-44-44h-256c-24 0-42 20-42 44s18 42 42 42h86v86h-298c-48 0-86 36-86 84v342c0 48 38 86 86 86h682c48 0 86-38 86-86v-342c0-48-38-84-86-84h-298v-86zM86 640v-342h682v342h-682z" />
<glyph unicode="&#xf11e;" glyph-name="diamond" horiz-adv-x="768" d="M384 134l282 338-104 210h-356l-104-210zM154 768h460l154-308-384-460-384 460z" />
<glyph unicode="&#xf11f;" glyph-name="disabled" d="M426-42c-236 0-426 190-426 426s190 426 426 426 428-190 428-426-192-426-428-426zM218 114c58-44 130-72 208-72 188 0 342 154 342 342 0 78-28 152-72 210zM158 174l478 480c-58 44-132 72-210 72-188 0-340-154-340-342 0-78 28-152 72-210z" />
<glyph unicode="&#xf120;" glyph-name="download" horiz-adv-x="682" d="M42 86h598c24 0 42-20 42-44s-18-42-42-42h-598c-24 0-42 18-42 42s18 44 42 44zM384 334l138 138 60-60-240-242-242 242 60 60 138-138v476h86v-476z" />
<glyph unicode="&#xf121;" glyph-name="drop-down" horiz-adv-x="598" d="M0 554h598l-300-340z" />
<glyph unicode="&#xf122;" glyph-name="drop-left" horiz-adv-x="342" d="M342 682v-596l-342 298z" />
<glyph unicode="&#xf123;" glyph-name="drop-right" horiz-adv-x="342" d="M0 682l342-298-342-298v596z" />
<glyph unicode="&#xf124;" glyph-name="drop-up" horiz-adv-x="598" d="M298 554l300-340h-598z" />
<glyph unicode="&#xf125;" glyph-name="elipsis-h" horiz-adv-x="682" d="M598 298c-48 0-86 38-86 86s38 86 86 86 84-38 84-86-36-86-84-86zM86 298c-48 0-86 38-86 86s38 86 86 86 84-38 84-86-36-86-84-86zM342 298c-48 0-86 38-86 86s38 86 86 86 84-38 84-86-36-86-84-86z" />
<glyph unicode="&#xf126;" glyph-name="elipsis-v" horiz-adv-x="170" d="M86 42c-48 0-86 38-86 86s38 86 86 86 84-38 84-86-36-86-84-86zM86 298c-48 0-86 38-86 86s38 86 86 86 84-38 84-86-36-86-84-86zM86 554c-48 0-86 38-86 86s38 86 86 86 84-38 84-86-36-86-84-86z" />
<glyph unicode="&#xf127;" glyph-name="eye" d="M0 384c40 194 216 342 426 342s388-148 428-342c-40-194-218-342-428-342s-386 148-426 342zM426 170c118 0 214 96 214 214s-96 214-214 214-212-96-212-214 94-214 212-214zM426 256c-70 0-128 58-128 128s58 128 128 128 128-58 128-128-58-128-128-128z" />
<glyph unicode="&#xf128;" glyph-name="feed" horiz-adv-x="768" d="M128 86c24 0 42 18 42 42s-18 42-42 42-42-18-42-42 18-42 42-42zM128 0c-70 0-128 58-128 128s58 128 128 128 128-58 128-128-58-128-128-128zM682 0c-22 366-316 660-682 682v86c424 0 768-344 768-768h-86zM468 0c-20 248-220 448-468 468v86c306 0 554-248 554-554h-86z" />
<glyph unicode="&#xf129;" glyph-name="flag" horiz-adv-x="682" d="M86 384v-384c0-24-20-42-44-42s-42 18-42 42v726c0 46 40 84 86 84h256c46 0 84-38 84-84h172c48 0 84-38 84-86v-256c0-48-36-86-84-86h-214c-46 0-86 40-86 86h-212zM86 726v-256h298v-86h214v256h-256v86h-256z" />
<glyph unicode="&#xf12a;" glyph-name="folder" horiz-adv-x="768" d="M342 682h340c48 0 86-36 86-84v-512c0-48-38-86-86-86h-596c-48 0-86 38-86 86v596c0 46 40 86 86 86h170zM86 598v-512h596v512h-596z" />
<glyph unicode="&#xf12b;" glyph-name="fork" horiz-adv-x="598" d="M170 562v-178h128c70 0 128 58 128 128v50c-50 18-84 64-84 120 0 70 58 128 128 128s128-58 128-128c0-56-36-102-86-120v-50c0-118-96-214-214-214h-128v-92c50-18 86-64 86-120 0-70-58-128-128-128s-128 58-128 128c0 56 36 102 86 120v356c-50 18-86 64-86 120 0 70 58 128 128 128s128-58 128-128c0-56-36-102-86-120zM128 42c24 0 42 20 42 44s-18 42-42 42-42-18-42-42 18-44 42-44zM470 640c24 0 42 18 42 42s-18 44-42 44-44-20-44-44 20-42 44-42zM128 640c24 0 42 18 42 42s-18 44-42 44-42-20-42-44 18-42 42-42z" />
<glyph unicode="&#xf12c;" glyph-name="globe" d="M0 384c0 236 190 426 426 426s428-190 428-426-192-426-428-426-426 190-426 426zM86 384c0-188 152-342 340-342s342 154 342 342-154 342-342 342-340-154-340-342zM266 450c10 22 28 84 40 84s8-32 20-34c10-2 2 14 28 16s52-12 52-12 32-8 60 0c0 0-16 22 2 30s44-20 44-38-40-30-40-30l40-24s12 38 38 38c22 0 50-40 36-58s-20-6-20-6-42-40-54-48-30 0-30 0-8-14 0-20c16-16 54-32 54-32s122-20 126-44-96-150-112-150h-38c-16 26 24 114 24 114s-20 22-24 36 8 38 8 38l-54 26s-30-2-44 10-22 76-22 76l-52 38s-46-58-60-50-32 18-22 40zM548 540c-36 0-124 46-110 70 0 36 92 30 112 30s68-14 94-36-10-52-24-64-36 0-72 0z" />
<glyph unicode="&#xf12d;" glyph-name="hash" horiz-adv-x="682" d="M256 256h170v256h-170v-256zM256 170v-128c0-24-18-42-42-42s-44 18-44 42v128h-128c-24 0-42 20-42 44s18 42 42 42h128v256h-128c-24 0-42 18-42 42s18 44 42 44h128v128c0 24 20 42 44 42s42-18 42-42v-128h170v128c0 24 20 42 44 42s42-18 42-42v-128h128c24 0 42-20 42-44s-18-42-42-42h-128v-256h128c24 0 42-18 42-42s-18-44-42-44h-128v-128c0-24-18-42-42-42s-44 18-44 42v128h-170z" />
<glyph unicode="&#xf12e;" glyph-name="heart" horiz-adv-x="768" d="M384 42c-94 20-384 182-384 470 0 118 96 214 214 214 70 0 132-34 170-86 38 52 100 86 170 86 118 0 214-96 214-214 0-288-290-450-384-470z" />
<glyph unicode="&#xf12f;" glyph-name="home" horiz-adv-x="768" d="M384 658l-298-238v-334h212v170h172v-170h212v314c0 12-6 24-16 32zM384 768l336-268c30-24 48-62 48-100v-314c0-48-38-86-86-86h-596c-48 0-86 38-86 86v334c0 26 12 50 32 66z" />
<glyph unicode="&#xf130;" glyph-name="info" d="M426 42c188 0 342 154 342 342s-154 342-342 342-340-154-340-342 152-342 340-342zM426-42c-236 0-426 190-426 426s190 426 426 426 428-190 428-426-192-426-428-426zM384 426h86v-256h-86v256zM384 598h86v-86h-86v86z" />
<glyph unicode="&#xf131;" glyph-name="key" d="M422 426h432v-170c0-24-20-42-44-42s-42 18-42 42v86h-86v-86c0-24-18-42-42-42s-42 18-42 42v86h-176c-20-98-104-172-208-172-118 0-214 96-214 214s96 214 214 214c104 0 188-74 208-172zM214 256c70 0 128 58 128 128s-58 128-128 128-128-58-128-128 58-128 128-128z" />
<glyph unicode="&#xf132;" glyph-name="keyboard" d="M0 554c0 48 38 86 86 86h682c48 0 86-38 86-86v-340c0-48-38-86-86-86h-682c-48 0-86 38-86 86v340zM640 298v-84h128v84h-128zM512 298v-84h86v84h-86zM214 298v-84h256v84h-256zM86 298v-84h84v84h-84zM682 426v-84h86v84h-86zM554 426v-84h86v84h-86zM426 426v-84h86v84h-86zM298 426v-84h86v84h-86zM86 426v-84h170v84h-170zM598 554v-84h170v84h-170zM470 554v-84h84v84h-84zM342 554v-84h84v84h-84zM214 554v-84h84v84h-84zM86 554v-84h84v84h-84z" />
<glyph unicode="&#xf133;" glyph-name="laptop" d="M810 42h-768c-24 0-42 20-42 44s18 42 42 42h768c24 0 44-18 44-42s-20-44-44-44zM128 640v-342h598v342h-598zM128 726h598c48 0 84-38 84-86v-342c0-48-36-84-84-84h-598c-48 0-86 36-86 84v342c0 48 38 86 86 86z" />
<glyph unicode="&#xf134;" glyph-name="layout" d="M86 726h682c48 0 86-38 86-86v-512c0-48-38-86-86-86h-682c-48 0-86 38-86 86v512c0 48 38 86 86 86zM86 640v-214h170v214h-170zM86 342v-214h170v214h-170zM342 640v-512h426v512h-426z" />
<glyph unicode="&#xf135;" glyph-name="line-chart" d="M164 292c4-10 6-24 6-36 0-48-36-86-84-86s-86 38-86 86 38 86 86 86c12 0 24-4 34-8l100 100c-4 10-6 24-6 36 0 48 36 84 84 84s86-36 86-84c0-12-4-26-8-36l100-100c10 4 24 8 36 8s26-4 36-8l142 142c-4 10-8 24-8 36 0 48 38 86 86 86s86-38 86-86-38-86-86-86c-12 0-26 4-36 8l-142-142c4-10 8-24 8-36 0-48-38-86-86-86s-86 38-86 86c0 12 4 26 8 36l-100 100c-10-4-24-8-36-8s-24 4-34 8z" />
<glyph unicode="&#xf136;" glyph-name="link" d="M422 426h10c18 74 86 128 166 128h84c94 0 172-76 172-170s-78-170-172-170h-84c-80 0-148 54-166 128h-10c-18-74-86-128-166-128h-86c-94 0-170 76-170 170s76 170 170 170h86c80 0 148-54 166-128zM330 426c-14 26-42 44-74 44h-86c-48 0-84-38-84-86s36-86 84-86h86c32 0 60 18 74 44-18 4-32 22-32 42s14 38 32 42zM512 342c14-26 42-44 74-44h86c48 0 86 38 86 86s-38 86-86 86h-86c-32 0-60-18-74-44 18-4 32-22 32-42s-14-38-32-42z" />
<glyph unicode="&#xf137;" glyph-name="link-external" horiz-adv-x="682" d="M86 554h212v-84h-212v-342h340v214h86v-214c0-48-38-86-86-86h-340c-48 0-86 38-86 86v342c0 48 38 84 86 84zM538 640h-196v86h340v-342h-84v194l-228-228-60 62z" />
<glyph unicode="&#xf138;" glyph-name="location" horiz-adv-x="512" d="M256 86c18 0 62 50 102 140 40 92 68 206 68 270 0 104-76 186-170 186s-170-82-170-186c0-64 28-178 68-270 40-90 84-140 102-140zM256 0c-142 0-256 346-256 496s114 272 256 272 256-122 256-272-114-496-256-496zM256 426c-48 0-86 38-86 86s38 86 86 86 86-38 86-86-38-86-86-86z" />
<glyph unicode="&#xf139;" glyph-name="lock" horiz-adv-x="682" d="M128 470v128c0 118 96 212 214 212s212-94 212-212v-128h44c48 0 84-38 84-86v-342c0-48-36-84-84-84h-512c-48 0-86 36-86 84v342c0 48 38 86 86 86h42zM86 384v-342h512v342h-512zM214 470h256v128c0 70-58 128-128 128s-128-58-128-128v-128zM426 298h86v-170h-86v170z" />
<glyph unicode="&#xf13a;" glyph-name="login" horiz-adv-x="768" d="M280 426l-108 108 62 62 210-212-210-212-62 62 108 108h-280v84h280zM342 768h340c46 0 86-40 86-86v-596c0-46-40-86-86-86h-340v86h340v596h-340v86z" />
<glyph unicode="&#xf13b;" glyph-name="logout" horiz-adv-x="768" d="M0 682c0 46 40 86 86 86h340v-86h-340v-596h340v-86h-340c-46 0-86 40-86 86v596zM604 426l-108 108 60 62 212-212-212-212-60 62 108 108h-280v84h280z" />
<glyph unicode="&#xf13c;" glyph-name="mail" d="M86 470v-342h682v342l-342-128zM86 640v-86l340-128 342 128v86h-682zM86 726h682c48 0 86-38 86-86v-512c0-48-38-86-86-86h-682c-48 0-86 38-86 86v512c0 48 38 86 86 86z" />
<glyph unicode="&#xf13d;" glyph-name="medal" horiz-adv-x="598" d="M298-42c-164 0-298 134-298 298s134 298 298 298 300-134 300-298-136-298-300-298zM298 42c118 0 214 96 214 214s-96 214-214 214-212-96-212-214 94-214 212-214zM298 554c-24 0-42 20-42 44s18 42 42 42 44-18 44-42-20-44-44-44zM170 810h86v-170c-46 0-86 40-86 86v84zM342 810h84v-84c0-46-38-86-84-86v170z" />
<glyph unicode="&#xf13e;" glyph-name="megaphone" d="M86 554l2-90 658 174c8 2 14 2 22 2 48 0 86-38 86-86v-340c0-8-2-14-4-22-12-46-58-74-104-62l-660 174v-90c0-24-20-44-44-44s-42 20-42 44v340c0 24 18 44 42 44s44-20 44-44zM170 398v-28l598-156v340z" />
<glyph unicode="&#xf140;" glyph-name="minus" horiz-adv-x="768" d="M42 426h684c24 0 42-18 42-42s-18-42-42-42h-684c-24 0-42 18-42 42s18 42 42 42v0z" />
<glyph unicode="&#xf141;" glyph-name="mobile" horiz-adv-x="512" d="M86 810h340c48 0 86-36 86-84v-684c0-48-38-84-86-84h-340c-48 0-86 36-86 84v684c0 48 38 84 86 84zM86 726v-640h340v640h-340z" />
<glyph unicode="&#xf142;" glyph-name="mouse" horiz-adv-x="512" d="M256 726c-94 0-170-78-170-172v-340c0-94 76-172 170-172s170 78 170 172v340c0 94-76 172-170 172zM256 810c142 0 256-114 256-256v-340c0-142-114-256-256-256s-256 114-256 256v340c0 142 114 256 256 256zM298 470c0-24-18-44-42-44s-42 20-42 44v128c0 24 18 42 42 42s42-18 42-42v-128z" />
<glyph unicode="&#xf144;" glyph-name="pencil" horiz-adv-x="768" d="M0 128l512 512 128-128-512-512h-128v128zM554 682l86 86 128-128-86-86z" />
<glyph unicode="&#xf145;" glyph-name="phone" horiz-adv-x="768" d="M44 512l-2 2c-24 66-42 158-42 212 0 24 18 42 42 42h128c48 0 86-38 86-86v-84c0-48-38-86-86-86h-36c70-172 206-308 378-378v36c0 48 38 86 86 86h84c48 0 86-38 86-86v-128c0-20-22-42-42-42-74 0-148 18-214 42-218 78-390 252-468 470z" />
<glyph unicode="&#xf146;" glyph-name="pie-chart" d="M426-42c-236 0-426 190-426 426s190 426 426 426 428-190 428-426-192-426-428-426zM426 726c-188 0-340-154-340-342s152-342 340-342 342 154 342 342h-342v342z" />
<glyph unicode="&#xf147;" glyph-name="pizza" d="M426-42c-236 0-426 190-426 426s190 426 426 426 428-190 428-426-192-426-428-426zM426 42c188 0 342 154 342 342s-154 342-342 342-340-154-340-342 152-342 340-342zM214 256h84v-86zM640 256l-86-86v86h86zM298 598v-86h-84zM554 598l86-86h-86v86zM448 512c-36 0-64 28-64 64s28 64 64 64 64-28 64-64-28-64-64-64zM234 342c-36 0-64 28-64 64s28 64 64 64 64-28 64-64-28-64-64-64zM618 298c-36 0-64 28-64 64s28 64 64 64 64-28 64-64-28-64-64-64zM426 342c-24 0-42 18-42 42s18 42 42 42 44-18 44-42-20-42-44-42zM406 128c-36 0-64 28-64 64s28 64 64 64 64-28 64-64-28-64-64-64z" />
<glyph unicode="&#xf148;" glyph-name="plus" horiz-adv-x="768" d="M426 342v-300c0-24-18-42-42-42s-42 18-42 42v300h-300c-24 0-42 18-42 42s18 42 42 42h300v300c0 24 18 42 42 42s42-18 42-42v-300h300c24 0 42-18 42-42s-18-42-42-42h-300z" />
<glyph unicode="&#xf149;" glyph-name="prototype" horiz-adv-x="768" d="M256 384h-96c-14-26-42-42-74-42-48 0-86 36-86 84s38 86 86 86c32 0 60-16 74-42h96v212c0 48 38 86 86 86h340c48 0 86-38 86-86v-596c0-48-38-86-86-86h-340c-48 0-86 38-86 86v298zM342 384v-298h340v596h-340v-212h96c14 26 42 42 74 42 48 0 86-38 86-86s-38-84-86-84c-32 0-60 16-74 42h-96z" />
<glyph unicode="&#xf14a;" glyph-name="question" d="M426-42c-236 0-426 190-426 426s190 426 426 426 428-190 428-426-192-426-428-426zM426 42c188 0 342 154 342 342s-154 342-342 342-340-154-340-342 152-342 340-342zM384 214h86v-86h-86v86zM384 298c0 70 128 134 128 172 0 46-40 84-86 84s-84-38-84-84h-86c0 94 78 170 172 170s170-76 170-170c0-86-128-130-128-172h-86z" />
<glyph unicode="&#xf14b;" glyph-name="quote-left" horiz-adv-x="768" d="M170 0c-94 0-170 76-170 170 0 62 56 262 170 598h86c-56-284-86-426-86-426 94 0 172-78 172-172s-78-170-172-170zM598 0c-94 0-172 76-172 170 0 62 58 262 172 598h84l-84-426c94 0 170-78 170-172s-76-170-170-170z" />
<glyph unicode="&#xf14c;" glyph-name="quote-right" horiz-adv-x="768" d="M598 426c-94 0-172 78-172 172s78 170 172 170 170-76 170-170c0-62-56-262-170-598h-86c56 284 86 426 86 426zM170 426c-94 0-170 78-170 172s76 170 170 170 172-76 172-170c0-62-58-262-172-598h-84z" />
<glyph unicode="&#xf14d;" glyph-name="rocket" horiz-adv-x="682" d="M426-42h-170c-34 0-70 48-98 116l-116-116-42 42v170l102 102c-10 56-16 108-16 154 0 170 128 384 256 384s256-214 256-384c0-46-6-98-16-154l100-102v-170l-42-42-116 116c-28-68-64-116-98-116zM342 42h68c2 2 6 8 8 12 14 22 32 56 46 100 30 88 48 198 48 272 0 136-104 300-170 300s-172-164-172-300c0-74 20-184 50-272 14-44 30-78 44-100 2-4 6-10 8-12h70zM342 384c-48 0-86 38-86 86s38 84 86 84 84-36 84-84-36-86-84-86z" />
<glyph unicode="&#xf14e;" glyph-name="search" d="M612 260l228-230c16-16 16-44 0-60s-44-16-60 0l-230 230c-58-44-130-72-208-72-188 0-342 154-342 342s154 340 342 340 340-152 340-340c0-78-26-152-70-210zM342 214c142 0 256 114 256 256s-114 256-256 256-256-114-256-256 114-256 256-256z" />
<glyph unicode="&#xf14f;" glyph-name="share" horiz-adv-x="682" d="M462 260c24 24 56 38 92 38 70 0 128-58 128-128s-58-128-128-128-128 58-128 128c0 8 0 16 2 22l-208 104c-24-24-56-40-92-40-70 0-128 58-128 128s58 128 128 128c36 0 68-16 92-40l208 104c-2 6-2 14-2 22 0 70 58 128 128 128s128-58 128-128-58-128-128-128c-36 0-68 14-92 38l-208-104c2-6 2-14 2-20s0-14-2-20zM554 554c24 0 44 20 44 44s-20 42-44 42-42-18-42-42 18-44 42-44zM554 128c24 0 44 18 44 42s-20 44-44 44-42-20-42-44 18-42 42-42zM128 342c24 0 42 18 42 42s-18 42-42 42-42-18-42-42 18-42 42-42z" />
<glyph unicode="&#xf150;" glyph-name="sitemap" horiz-adv-x="768" d="M682 256c48 0 86-38 86-86v-84c0-48-38-86-86-86h-84c-48 0-86 38-86 86v84c0 48 38 86 86 86v86h-428v-86c48 0 86-38 86-86v-84c0-48-38-86-86-86h-84c-48 0-86 38-86 86v84c0 48 38 86 86 86v86c0 48 36 84 84 84h172v86c-48 0-86 38-86 86v84c0 48 38 86 86 86h84c48 0 86-38 86-86v-84c0-48-38-86-86-86v-86h172c48 0 84-36 84-84v-86zM86 170v-84h84v84h-84zM598 170v-84h84v84h-84zM342 682v-84h84v84h-84z" />
<glyph unicode="&#xf151;" glyph-name="star" horiz-adv-x="810" d="M406 132l-252-132 48 278-202 196 280 42 126 252 124-252 280-42-202-196 48-278z" />
<glyph unicode="&#xf152;" glyph-name="tablet" horiz-adv-x="682" d="M86 726v-640h512v640h-512zM86 810h512c48 0 84-36 84-84v-684c0-48-36-84-84-84h-512c-48 0-86 36-86 84v684c0 48 38 84 86 84z" />
<glyph unicode="&#xf153;" glyph-name="tag" horiz-adv-x="768" d="M84 260l176-176 424 424v176h-176zM448 744c16 16 38 24 60 24h176c46 0 84-38 84-84v-176c0-22-8-44-24-60l-424-424c-34-34-84-34-118 0l-178 178c-34 34-34 84 0 118zM554 512c-24 0-42 18-42 42s18 44 42 44 44-20 44-44-20-42-44-42z" />
<glyph unicode="&#xf154;" glyph-name="terminal" d="M86 726h682c48 0 86-38 86-86v-512c0-48-38-86-86-86h-682c-48 0-86 38-86 86v512c0 48 38 86 86 86zM86 640v-512h682v512h-682zM426 298h256v-84h-256v84zM384 402l-152-150-60 60 90 90-90 90 60 62z" />
<glyph unicode="&#xf155;" glyph-name="ticket" d="M0 470v84c0 48 38 86 86 86h682c48 0 86-38 86-86v-84c-48 0-86-38-86-86s38-86 86-86v-84c0-48-38-86-86-86h-682c-48 0-86 38-86 86v84c48 0 86 38 86 86s-38 86-86 86zM128 554v-340h598v340h-598zM214 470h426v-172h-426v172z" />
<glyph unicode="&#xf156;" glyph-name="tiled" horiz-adv-x="682" d="M86 726h512c48 0 84-38 84-86v-512c0-48-36-86-84-86h-512c-48 0-86 38-86 86v512c0 48 38 86 86 86zM384 342v-214h214v214h-214zM86 342v-214h212v214h-212zM384 640v-214h214v214h-214zM86 640v-214h212v214h-212z" />
<glyph unicode="&#xf157;" glyph-name="trash" horiz-adv-x="768" d="M42 682h128v44c0 48 38 84 86 84h256c48 0 86-36 86-84v-44h128c24 0 42-18 42-42s-18-42-42-42h-44v-556c0-48-36-84-84-84h-428c-48 0-84 36-84 84v556h-44c-24 0-42 18-42 42s18 42 42 42zM170 598v-556h428v556h-428zM256 682h256v44h-256v-44zM256 512h86v-384h-86v384zM426 512h86v-384h-86v384z" />
<glyph unicode="&#xf158;" glyph-name="trophy" horiz-adv-x="682" d="M94 512h-8c-48 0-86 38-86 86s38 84 86 84v44c0 48 36 84 84 84h342c48 0 86-36 86-84v-44c48 0 84-36 84-84s-36-86-84-86h-10c-26-92-106-162-204-170v-172h42c48 0 86-36 86-84v-44h42c24 0 44-18 44-42s-20-42-44-42h-426c-24 0-42 18-42 42s18 42 42 42h42v44c0 48 38 84 86 84h42v172c-98 8-178 78-204 170zM170 726v-150c0-82 68-150 150-150h42c82 0 150 68 150 150v150h-342z" />
<glyph unicode="&#xf159;" glyph-name="upload" horiz-adv-x="682" d="M384 648v-478h-86v478l-138-140-60 62 242 240 240-240-60-62zM42 86h598c24 0 42-20 42-44s-18-42-42-42h-598c-24 0-42 18-42 42s18 44 42 44z" />
<glyph unicode="&#xf15a;" glyph-name="user" horiz-adv-x="682" d="M342 384c-94 0-172 76-172 170s78 172 172 172 170-78 170-172-76-170-170-170zM342 256c136 0 256-24 340-130v-84h-682v84c84 106 206 130 342 130z" />
<glyph unicode="&#xf15b;" glyph-name="user-plus" horiz-adv-x="768" d="M342 256c136 0 256-24 340-130v-84h-682v84c84 106 206 130 342 130zM342 384c-94 0-172 76-172 170s78 172 172 172 170-78 170-172-76-170-170-170zM682 298c0-24-18-42-42-42s-42 18-42 42v44h-44c-24 0-42 18-42 42s18 42 42 42h44v44c0 24 18 42 42 42s42-18 42-42v-44h44c24 0 42-18 42-42s-18-42-42-42h-44v-44z" />
<glyph unicode="&#xf15c;" glyph-name="users" d="M256 342c-70 0-128 58-128 128s58 128 128 128 128-58 128-128-58-128-128-128zM598 342c-70 0-128 58-128 128s58 128 128 128 128-58 128-128-58-128-128-128zM256 256c102 0 194-46 256-116v-54h-512v54c62 70 154 116 256 116zM598 86v86l-22 24c-16 18-34 36-54 52 24 6 50 8 76 8 102 0 194-46 256-116v-54h-256z" />
<glyph unicode="&#xf15d;" glyph-name="vector" d="M256 42c0-48-38-84-86-84h-84c-48 0-86 36-86 84v86c0 48 38 86 86 86v340c-48 0-86 38-86 86v86c0 48 38 84 86 84h84c48 0 86-36 86-84h342c0 48 36 84 84 84h86c48 0 86-36 86-84v-86c0-48-38-86-86-86v-340c48 0 86-38 86-86v-86c0-48-38-84-86-84h-86c-48 0-84 36-84 84h-342zM256 640c0-48-38-86-86-86v-340c48 0 86-38 86-86h342c0 48 36 86 84 86v340c-48 0-84 38-84 86h-342zM86 726v-86h84v86h-84zM682 726v-86h86v86h-86zM682 128v-86h86v86h-86zM86 128v-86h84v86h-84z" />
<glyph unicode="&#xf15e;" glyph-name="video" d="M554 484l242 92c22 8 46-4 54-26 2-4 4-8 4-14v-304c0-24-20-42-44-42-6 0-10 0-14 2l-242 90v-68c0-48-36-86-84-86h-384c-48 0-86 38-86 86v340c0 48 38 86 86 86h384c48 0 84-38 84-86v-70z" />
<glyph unicode="&#xf15f;" glyph-name="warning" d="M426 42c188 0 342 154 342 342s-154 342-342 342-340-154-340-342 152-342 340-342zM426-42c-236 0-426 190-426 426s190 426 426 426 428-190 428-426-192-426-428-426zM384 214h86v-86h-86v86zM384 640h86v-342h-86v342z" />
<glyph unicode="&#xf161;" glyph-name="wine-glass" horiz-adv-x="426" d="M86 42h84v256c-94 0-170 78-170 172v256c0 48 38 84 86 84h256c48 0 84-36 84-84v-256c0-94-76-172-170-172v-256h86c24 0 42-18 42-42s-18-42-42-42h-256c-24 0-44 18-44 42s20 42 44 42zM86 726v-256c0-48 36-86 84-86h86c48 0 86 38 86 86v256h-256z" />
<glyph unicode="&#xf162;" glyph-name="wrench" horiz-adv-x="426" d="M298 402v-360c0-48-36-84-84-84s-86 36-86 84v360c-76 32-128 108-128 196 0 118 96 212 214 212h16l-102-170 170-86 96 158c22-34 32-72 32-114 0-88-52-164-128-196z" />
<glyph unicode="&#xf163;" glyph-name="birthday-cake" horiz-adv-x="768" d="M598 470c94 0 170-78 170-172v-212c0-48-38-86-86-86h-596c-48 0-86 38-86 86v212c0 94 76 172 170 172v128h86v-128h86v128h84v-128h86v128h86v-128zM170 384c-48 0-84-38-84-86v-42h596v42c0 48-36 86-84 86h-428zM86 170v-84h596v84h-596zM170 726c24 0 44 18 44 42 24 0 42-18 42-42v-44c0-24-18-42-42-42s-44 18-44 42v44zM342 726c24 0 42 18 42 42 24 0 42-18 42-42v-44c0-24-18-42-42-42s-42 18-42 42v44zM512 726c24 0 42 18 42 42 24 0 44-18 44-42v-44c0-24-20-42-44-42s-42 18-42 42v44z" />
<glyph unicode="&#xf164;" glyph-name="mention" horiz-adv-x="768" d="M768 384c0-82-68-150-150-150-40 0-76 16-102 42-32-38-78-62-132-62-94 0-170 76-170 170s76 170 170 170c32 0 60-8 86-22v22h84v-170c0-36 28-64 64-64s64 28 64 64c0 164-134 298-298 298s-298-134-298-298 134-298 298-298c56 0 110 14 154 42h132c-70-78-172-128-286-128-212 0-384 172-384 384s172 384 384 384 384-172 384-384zM384 298c48 0 86 38 86 86s-38 86-86 86-86-38-86-86 38-86 86-86z" />
<glyph unicode="&#xf165;" glyph-name="palette" d="M364-38c12 24 20 50 20 80 0 94-76 172-170 172-56 0-110-30-140-72-48 68-74 152-74 242 0 236 190 426 426 426s428-190 428-426-192-426-428-426c-22 0-42 0-62 4zM298 512c48 0 86 38 86 86s-38 84-86 84-84-36-84-84 36-86 84-86zM554 512c48 0 86 38 86 86s-38 84-86 84-84-36-84-84 36-86 84-86zM682 298c48 0 86 38 86 86s-38 86-86 86-84-38-84-86 36-86 84-86zM170 298c48 0 86 38 86 86s-38 86-86 86-84-38-84-86 36-86 84-86zM554 86c48 0 86 36 86 84s-38 86-86 86-84-38-84-86 36-84 84-84z" />
<glyph unicode="&#xf166;" glyph-name="coffee" horiz-adv-x="768" d="M42 170h684c24 0 42-18 42-42s-18-42-42-42h-684c-24 0-42 18-42 42s18 42 42 42zM598 598h42c48 0 86-38 86-86s-38-86-86-86h-46c-20-98-106-170-210-170h-86c-118 0-212 96-212 214v128c0 48 36 84 84 84h342c48 0 86-36 86-84zM170 598v-128c0-70 58-128 128-128h86c70 0 128 58 128 128v128h-342z" />
<glyph unicode="&#xf167;" glyph-name="heart-o" horiz-adv-x="768" d="M384 42c-94 20-384 182-384 470 0 118 96 214 214 214 70 0 132-34 170-86 38 52 100 86 170 86 118 0 214-96 214-214 0-288-290-450-384-470zM384 128c134 40 298 206 298 384 0 70-58 128-128 128-56 0-112-34-170-106-58 72-114 106-170 106-70 0-128-58-128-128 0-178 164-344 298-384z" />
<glyph unicode="&#xf168;" glyph-name="star-o" horiz-adv-x="810" d="M268 156l138 72 136-72-26 152 112 108-154 22-68 138-70-138-152-22 110-108zM406 132l-252-132 48 278-202 196 280 42 126 252 124-252 280-42-202-196 48-278z" />
<glyph unicode="&#xf169;" glyph-name="unlock" horiz-adv-x="682" d="M128 470v128c0 118 96 212 214 212s212-94 212-212c0-24-18-44-42-44s-42 20-42 44c0 70-58 128-128 128s-128-58-128-128v-128h384c48 0 84-38 84-86v-342c0-48-36-84-84-84h-512c-48 0-86 36-86 84v342c0 48 38 86 86 86h42zM86 384v-342h512v342h-512zM426 298h86v-170h-86v170z" />
<glyph unicode="&#xf16a;" glyph-name="search-minus" d="M612 260l228-230c16-16 16-44 0-60s-44-16-60 0l-230 230c-58-44-130-72-208-72-188 0-342 154-342 342s154 340 342 340 340-152 340-340c0-78-26-152-70-210zM342 214c142 0 256 114 256 256s-114 256-256 256-256-114-256-256 114-256 256-256zM214 426c-24 0-44 20-44 44s20 42 44 42h256c24 0 42-18 42-42s-18-44-42-44h-256z" />
<glyph unicode="&#xf16b;" glyph-name="search-plus" d="M612 260l228-230c16-16 16-44 0-60s-44-16-60 0l-230 230c-58-44-130-72-208-72-188 0-342 154-342 342s154 340 342 340 340-152 340-340c0-78-26-152-70-210zM342 214c142 0 256 114 256 256s-114 256-256 256-256-114-256-256 114-256 256-256zM470 426h-86v-84c0-24-18-44-42-44s-44 20-44 44v84h-84c-24 0-44 20-44 44s20 42 44 42h84v86c0 24 20 42 44 42s42-18 42-42v-86h86c24 0 42-18 42-42s-18-44-42-44z" />
<glyph unicode="&#xf16c;" glyph-name="user-minus" horiz-adv-x="768" d="M342 256c136 0 256-24 340-130v-84h-682v84c84 106 206 130 342 130zM342 384c-94 0-172 76-172 170s78 172 172 172 170-78 170-172-76-170-170-170zM554 298c-24 0-42 20-42 44s18 42 42 42h172c24 0 42-18 42-42s-18-44-42-44h-172z" />
<glyph unicode="&#xf16d;" glyph-name="map" horiz-adv-x="768" d="M256 170l256-82v508l-256 86v-512zM0 682l256 86 256-86 256 86v-682l-256-86-256 86-256-86v682z" />
<glyph unicode="&#xf16e;" glyph-name="export" horiz-adv-x="682" d="M384 648v-478h-86v478l-138-140-60 62 242 240 240-240-60-62zM0 214h86v-172h512v172h84v-172c0-46-38-84-84-84h-512c-46 0-86 40-86 84v172z" />
<glyph unicode="&#xf16f;" glyph-name="import" horiz-adv-x="682" d="M384 334l138 138 60-60-240-242-242 242 60 60 138-138v476h86v-476zM0 214h86v-172h512v172h84v-172c0-46-38-84-84-84h-512c-46 0-86 40-86 84v172z" />
<glyph unicode="&#xf170;" glyph-name="bookmark" horiz-adv-x="682" d="M598 726h-512v-630l256 128 256-128v630zM86 810h512c48 0 84-36 84-84v-768l-340 170-342-170v768c0 48 38 84 86 84zM426 640h86v-256h-86v256z" />
<glyph unicode="&#xf171;" glyph-name="print" horiz-adv-x="682" d="M128 426v300c0 48 38 84 86 84h256c48 0 84-36 84-84v-300h44c48 0 84-36 84-84v-128c0-46-38-86-84-86h-44v-86c0-48-36-84-84-84h-256c-48 0-86 36-86 84v86h-42c-46 0-86 40-86 86v128c0 48 38 84 86 84h42zM214 726v-300h256v300h-256zM426 342v-86h86v86h-86zM214 128v-86h256v86h-256z" />
<glyph unicode="&#xf172;" glyph-name="shield" horiz-adv-x="682" d="M86 180l256-128v674h-256v-546zM86 810h512c48 0 84-36 84-84v-598l-340-170-342 170v598c0 48 38 84 86 84z" />
<glyph unicode="&#xf173;" glyph-name="filter" horiz-adv-x="682" d="M598 642v84h-512v-84l256-184zM384 384v-342l-86-84v426l-262 188c-22 16-36 42-36 70v84c0 48 38 84 86 84h512c48 0 84-36 84-84v-84c0-28-14-54-36-70z" />
<glyph unicode="&#xf174;" glyph-name="feather" horiz-adv-x="682" d="M86 134v-134c0-24-20-42-44-42s-42 18-42 42v128c0 378 304 682 682 682 0-348-260-634-596-676zM92 220c256 40 458 242 498 498-256-40-458-242-498-498z" />
<glyph unicode="&#xf175;" glyph-name="music" horiz-adv-x="682" d="M682 726v-556c0-70-58-128-128-128s-128 58-128 128 58 128 128 128c14 0 30-2 44-6v348h-342v-554c0-70-58-128-128-128s-128 58-128 128 58 128 128 128c14 0 28-4 42-8v520c0 48 38 84 86 84h342c48 0 84-36 84-84z" />
<glyph unicode="&#xf176;" glyph-name="folder-open" horiz-adv-x="768" d="M342 682h340c48 0 86-36 86-84v-512c0-48-38-86-86-86h-596c-48 0-86 38-86 86v596c0 46 40 86 86 86h170zM256 426v-340h426v340h-426zM86 598v-512h84v426h512v86h-596z" />
<glyph unicode="&#xf177;" glyph-name="magic" horiz-adv-x="768" d="M0 682l86 86 682-682-86-86zM426 682l44 86 42-86 86-42-86-42-42-86-44 86-84 42zM86 256l42 86 42-86 86-42-86-44-42-84-42 84-86 44zM42 512l44-42-44-44-42 44zM640 470l42-44-42-42-42 42z" />
<glyph unicode="&#xf178;" glyph-name="paper-plane" horiz-adv-x="768" d="M460 384l-460 46v292c0 26 20 46 46 46 8 0 14 0 20-4l676-340c22-12 34-38 22-60-4-8-14-16-22-20l-676-340c-22-12-50 0-62 22-4 6-4 12-4 20v292z" />
<glyph unicode="&#xf179;" glyph-name="bold" horiz-adv-x="598" d="M0 42v684c0 46 40 84 86 84h212c128 0 254-60 256-210 0-78-40-158-108-184v-6c86-22 152-86 152-202 0-44-10-80-26-112-46-94-142-138-274-138h-212c-46 0-86 38-86 84zM128 86h170c110 0 172 52 172 128s-62 128-172 128h-170v-256zM128 470h128c102 0 170 36 170 108s-64 104-170 104h-128v-212z" />
<glyph unicode="&#xf17a;" glyph-name="italic" horiz-adv-x="598" d="M170 86l160 596h-116c-24 0-44 20-44 44s20 42 44 42h340c24 0 44-18 44-42s-20-44-44-44h-136l-160-596h126c24 0 42-20 42-44s-18-42-42-42h-342c-24 0-42 18-42 42s18 44 42 44h128z" />
<glyph unicode="&#xf17b;" glyph-name="text-size" horiz-adv-x="768" d="M448 192l102 308h94l124-372h-84l-24 82h-126l-28-82h-152l-34 114h-174l-38-114h-108l170 512h128zM170 342h128l-64 170zM550 284h94l-46 124z" />
<glyph unicode="&#xf17c;" glyph-name="list-bullet" horiz-adv-x="768" d="M298 726h428c24 0 42-20 42-44s-18-42-42-42h-428c-24 0-42 18-42 42s18 44 42 44zM298 426h428c24 0 42-18 42-42s-18-42-42-42h-428c-24 0-42 18-42 42s18 42 42 42zM298 128h428c24 0 42-18 42-42s-18-44-42-44h-428c-24 0-42 20-42 44s18 42 42 42zM86 598c-48 0-86 36-86 84s38 86 86 86 84-38 84-86-36-84-84-84zM86 298c-48 0-86 38-86 86s38 86 86 86 84-38 84-86-36-86-84-86zM86 0c-48 0-86 38-86 86s38 84 86 84 84-36 84-84-36-86-84-86z" />
<glyph unicode="&#xf17d;" glyph-name="list-order" horiz-adv-x="726" d="M256 726h426c24 0 44-20 44-44s-20-42-44-42h-426c-24 0-42 18-42 42s18 44 42 44zM256 426h426c24 0 44-18 44-42s-20-42-44-42h-426c-24 0-42 18-42 42s18 42 42 42zM256 128h426c24 0 44-18 44-42s-20-44-44-44h-426c-24 0-42 20-42 44s18 42 42 42zM22 726c-12 0-22 8-22 20s10 22 22 22h42c12 0 22-10 22-22v-128c0-12-10-20-22-20s-22 8-22 20v106zM22 470h84c12 0 22-10 22-22v-22l-72-84h50c12 0 22-10 22-22s-10-22-22-22h-84c-12 0-22 10-22 22v22l72 84h-50c-12 0-22 10-22 22s10 22 22 22zM106 0h-84c-12 0-22 10-22 22s10 20 22 20h64v22h-64c-12 0-22 10-22 22s10 20 22 20h64v22h-64c-12 0-22 10-22 22s10 20 22 20h84c12 0 22-8 22-20v-128c0-12-10-22-22-22z" />
<glyph unicode="&#xf17e;" glyph-name="list-task" horiz-adv-x="682" d="M214 342h426c24 0 42-20 42-44s-18-42-42-42h-426c-24 0-44 18-44 42s20 44 44 44zM214 170h426c24 0 42-18 42-42s-18-42-42-42h-426c-24 0-44 18-44 42s20 42 44 42zM470 512h170c24 0 42-18 42-42s-18-44-42-44h-170c-24 0-44 20-44 44s20 42 44 42zM160 430l-160 160 60 60 100-98 216 216 62-60z" />
<glyph unicode="&#xf17f;" glyph-name="edit" horiz-adv-x="682" d="M42 42h598c24 0 42-18 42-42s-18-42-42-42h-598c-24 0-42 18-42 42s18 42 42 42zM0 256l426 426 128-128-426-426h-128v128zM470 726l84 84 128-128-84-84z" />
<glyph unicode="&#xf180;" glyph-name="backward" horiz-adv-x="682" d="M342 384c0 4 0 10 2 14s6 8 10 10l292 186c12 8 28 4 34-10 2-4 2-10 2-14v-372c0-16-10-28-24-28-4 0-8 2-12 4l-292 186c-8 6-12 14-12 24v-186c0-16-10-28-24-28-4 0-8 2-12 4l-294 186c-12 8-14 24-8 38 2 4 4 8 8 10l294 186c12 8 26 4 32-10 2-4 4-10 4-14v-186z" />
<glyph unicode="&#xf181;" glyph-name="compress" horiz-adv-x="598" d="M554 384h-256v256l86-86 128 128 86-84-128-128zM42 384h256v-256l-84 86-128-128-86 84 128 128z" />
<glyph unicode="&#xf182;" glyph-name="eject" horiz-adv-x="512" d="M42 214h428c24 0 42-20 42-44s-18-42-42-42h-428c-24 0-42 18-42 42s18 44 42 44zM298 622l206-258c16-20 8-46-14-58-8-4-18-8-28-8h-412c-28 0-50 20-50 42 0 8 2 18 8 24l206 258c16 20 48 24 70 12 6-4 10-8 14-12z" />
<glyph unicode="&#xf183;" glyph-name="expand" horiz-adv-x="682" d="M426 726h256v-256l-84 84-172-170-84 86 170 170zM256 42h-256v256l86-84 170 170 86-86-172-170z" />
<glyph unicode="&#xf184;" glyph-name="fast-backward" horiz-adv-x="768" d="M86 384c0 4 0 10 2 14s6 8 10 10l292 186c12 8 28 4 34-10 2-4 2-10 2-14v-186c0 4 2 10 4 14s6 8 10 10l292 186c12 8 26 4 32-10 2-4 4-10 4-14v-372c0-16-10-28-24-28-4 0-8 2-12 4l-292 186c-8 6-14 14-14 24v-186c0-16-10-28-24-28-4 0-8 2-12 4l-292 186c-8 6-12 14-12 24v-170c0-24-22-44-44-44s-42 20-42 44v340c0 24 18 44 42 44s44-20 44-44v-170z" />
<glyph unicode="&#xf185;" glyph-name="fast-forward" horiz-adv-x="768" d="M682 384c0-10-4-18-12-24l-292-186c-4-2-8-4-12-4-14 0-24 12-24 28v186c0-10-6-18-14-24l-292-186c-4-2-8-4-12-4-14 0-24 12-24 28v372c0 4 2 10 4 14 6 14 20 18 32 10l292-186c4-2 8-6 10-10s4-10 4-14v186c0 4 0 10 2 14 6 14 22 18 34 10l292-186c4-2 8-6 10-10s2-10 2-14v170c0 24 20 44 44 44s42-20 42-44v-340c0-24-20-44-42-44s-44 20-44 44v170z" />
<glyph unicode="&#xf186;" glyph-name="forward" horiz-adv-x="682" d="M342 384v186c0 4 0 10 2 14 6 14 22 18 34 10l292-186c4-2 8-6 10-10 6-14 2-30-10-38l-292-186c-4-2-8-4-12-4-14 0-24 12-24 28v186c0-10-6-18-14-24l-292-186c-4-2-8-4-12-4-14 0-24 12-24 28v372c0 4 2 10 4 14 6 14 20 18 32 10l292-186c4-2 8-6 10-10s4-10 4-14z" />
<glyph unicode="&#xf187;" glyph-name="pause" horiz-adv-x="426" d="M128 128c0-24-18-42-42-42h-44c-24 0-42 18-42 42v512c0 24 18 42 42 42h44c24 0 42-18 42-42v-512zM426 128c0-24-18-42-42-42h-42c-24 0-44 18-44 42v512c0 24 20 42 44 42h42c24 0 42-18 42-42v-512z" />
<glyph unicode="&#xf188;" glyph-name="play" horiz-adv-x="512" d="M0 644c0 6 0 12 4 18 10 18 32 26 50 16l440-260c6-4 10-10 14-16 10-18 4-42-14-52l-440-260c-6-4-12-4-18-4-20 0-36 16-36 38v520z" />
<glyph unicode="&#xf189;" glyph-name="random" horiz-adv-x="768" d="M42 170c-24 0-42 20-42 44s18 42 42 42h86l128 128-128 128h-86c-24 0-42 18-42 42s18 44 42 44h128l172-172 170 172h86v84l170-128-170-128v86h-44l-128-128 128-128h44v86l170-128-170-128v84h-86l-170 172-172-172h-128z" />
<glyph unicode="&#xf18b;" glyph-name="stop" horiz-adv-x="598" d="M86 682h426c48 0 86-36 86-84v-428c0-48-38-84-86-84h-426c-48 0-86 36-86 84v428c0 48 38 84 86 84z" />
<glyph unicode="&#xf18c;" glyph-name="layer" horiz-adv-x="768" d="M128 554l256-128 256 128-256 128zM404 764l342-174c20-10 28-34 16-54-4-6-8-12-16-16l-342-174c-12-6-28-6-40 0l-342 174c-20 10-28 34-16 54 4 6 8 12 16 16l342 174c12 6 28 6 40 0zM404 176c-12-6-28-6-40 0l-342 176c-20 10-28 36-16 56 4 6 8 10 16 14 10 6 22 6 32 0l310-160c12-6 28-6 40 0l310 160c10 6 22 6 32 0 20-10 28-34 16-54-4-6-8-12-16-16zM404 6c-12-6-28-6-40 0l-342 176c-20 10-28 34-16 54 4 6 8 12 16 16 10 6 22 6 32 0l310-160c12-6 28-6 40 0l310 160c10 6 22 6 32 0 20-10 28-34 16-54-4-6-8-12-16-16z" />
<glyph unicode="&#xf18e;" glyph-name="headphone" horiz-adv-x="768" d="M682 342c48 0 86-38 86-86v-170c0-48-38-86-86-86s-84 38-84 86v384c0 118-96 212-214 212s-214-94-214-212v-384c0-48-36-86-84-86s-86 38-86 86v170c0 48 38 86 86 86v128c0 164 134 298 298 298s298-134 298-298v-128z" />
<glyph unicode="&#xf18f;" glyph-name="plug" horiz-adv-x="768" d="M598 426v-84h128c24 0 42-20 42-44s-18-42-42-42h-140c-14-26-42-42-74-42h-128c-80 0-148 54-166 128h-176c-24 0-42 18-42 42s18 42 42 42h176c18 74 86 128 166 128h128c32 0 60-16 74-42h140c24 0 42-18 42-42s-18-44-42-44h-128z" />
<glyph unicode="&#xf190;" glyph-name="usb" horiz-adv-x="426" d="M86 726v-172h256v172h-256zM256 470v-172h86v172h-86zM86 810h256c48 0 84-36 84-84v-684c0-48-36-84-84-84h-256c-48 0-86 36-86 84v684c0 48 38 84 86 84z" />
<glyph unicode="&#xf191;" glyph-name="gamepad" d="M470 256h-86c-38-52-100-86-170-86-118 0-214 96-214 214s96 214 214 214h426c118 0 214-96 214-214s-96-214-214-214c-70 0-132 34-170 86zM256 426v44c0 24-18 42-42 42s-44-18-44-42v-44h-42c-24 0-42-18-42-42s18-42 42-42h42v-44c0-24 20-42 44-42s42 18 42 42v44h42c24 0 44 18 44 42s-20 42-44 42h-42zM640 426c24 0 42 20 42 44s-18 42-42 42-42-18-42-42 18-44 42-44zM598 298c24 0 42 20 42 44s-18 42-42 42-44-18-44-42 20-44 44-44zM726 342c24 0 42 18 42 42s-18 42-42 42-44-18-44-42 20-42 44-42z" />
<glyph unicode="&#xf192;" glyph-name="loop" horiz-adv-x="768" d="M166 250c44-74 126-122 218-122 112 0 206 70 242 170h88c-38-148-170-256-330-256-116 0-218 60-280 148l-104-104v256h256zM602 518c-44 74-126 122-218 122-112 0-206-70-242-170h-88c38 148 170 256 330 256 116 0 218-60 280-148l104 104v-256h-256z" />
<glyph unicode="&#xf194;" glyph-name="sync" horiz-adv-x="768" d="M166 250c44-74 126-122 218-122 112 0 206 70 242 170h88c-38-148-170-256-330-256-116 0-218 60-280 148l-104-104v256h256zM602 518c-44 74-126 122-218 122-112 0-206-70-242-170h-88c38 148 170 256 330 256 116 0 218-60 280-148l104 104v-256h-256z" />
<glyph unicode="&#xf195;" glyph-name="align-center" horiz-adv-x="682" d="M298 342v84h-200c-54 0-98 38-98 86s44 86 98 86h200v170c0 24 20 42 44 42s42-18 42-42v-170h202c54 0 96-38 96-86s-42-86-96-86h-202v-84h128c48 0 86-38 86-86s-38-86-86-86h-128v-170c0-24-18-42-42-42s-44 18-44 42v170h-128c-48 0-84 38-84 86s36 86 84 86h128z" />
<glyph unicode="&#xf196;" glyph-name="align-left" horiz-adv-x="598" d="M86 0c0-24-20-42-44-42s-42 18-42 42v768c0 24 18 42 42 42s44-18 44-42v-768zM256 512c-48 0-86 38-86 86s38 84 86 84h256c48 0 86-36 86-84s-38-86-86-86h-256zM256 384h170c48 0 86-38 86-86s-38-84-86-84h-170c-48 0-86 36-86 84s38 86 86 86z" />
<glyph unicode="&#xf197;" glyph-name="align-right" horiz-adv-x="598" d="M598 0c0-24-20-42-44-42s-42 18-42 42v768c0 24 18 42 42 42s44-18 44-42v-768zM342 682c48 0 84-36 84-84s-36-86-84-86h-256c-48 0-86 38-86 86s38 84 86 84h256zM342 384c48 0 84-38 84-86s-36-84-84-84h-172c-48 0-84 36-84 84s36 86 84 86h172z" />
<glyph unicode="&#xf198;" glyph-name="app-menu" horiz-adv-x="682" d="M512 214h170v-172h-170v172zM256 214h170v-172h-170v172zM0 214h170v-172h-170v172zM512 470h170v-172h-170v172zM256 470h170v-172h-170v172zM0 470h170v-172h-170v172zM512 726h170v-172h-170v172zM256 726h170v-172h-170v172zM0 726h170v-172h-170v172z" />
<glyph unicode="&#xf199;" glyph-name="audio-player" horiz-adv-x="512" d="M512 42c0-48-38-84-86-84h-340c-48 0-86 36-86 84v684c0 48 38 84 86 84h340c48 0 86-36 86-84v-684zM256 42c94 0 170 78 170 172s-76 170-170 170-170-76-170-170 76-172 170-172zM86 726v-256h340v256h-340zM256 128c-48 0-86 38-86 86s38 84 86 84 86-36 86-84-38-86-86-86z" />
<glyph unicode="&#xf19a;" glyph-name="check-circle" d="M426-42c-236 0-426 190-426 426s190 426 426 426 428-190 428-426-192-426-428-426zM256 470l-86-86 214-214 298 300-84 84-214-212z" />
<glyph unicode="&#xf19b;" glyph-name="check-circle-o" d="M426 42c188 0 342 154 342 342s-154 342-342 342-340-154-340-342 152-342 340-342zM426-42c-236 0-426 190-426 426s190 426 426 426 428-190 428-426-192-426-428-426zM256 470l128-128 214 212 84-84-298-300-214 214z" />
<glyph unicode="&#xf19c;" glyph-name="check-verified" d="M96 298h-10c-48 0-86 38-86 86s38 86 86 86h10c8 32 20 60 36 88l-8 8c-34 34-34 86 0 120s88 34 122 0l8-8c28 16 56 28 88 36v12c0 48 36 84 84 84s86-36 86-84v-12c32-8 60-20 88-36l8 8c34 34 86 34 120 0s34-86 0-120l-8-8c16-28 30-56 38-88h10c48 0 86-38 86-86s-38-86-86-86h-10c-8-32-22-60-38-88l8-8c34-34 34-86 0-120s-86-34-120 0l-8 8c-28-16-56-28-88-36v-12c0-48-38-84-86-84s-84 36-84 84v12c-32 8-60 20-88 36l-8-8c-34-34-88-34-122 0s-34 86 0 120l8 8c-16 28-28 56-36 88zM298 470l-84-86 170-170 256 256-86 84-170-170z" />
<glyph unicode="&#xf19d;" glyph-name="cutlery" horiz-adv-x="554" d="M170 342v-342c0-24-18-42-42-42s-42 18-42 42v342c-48 0-86 36-86 84v300c0 48 38 84 86 84v-256h84v256c48 0 86-36 86-84v-300c0-48-38-84-86-84zM554 726v-726c0-24-18-42-42-42s-42 18-42 42v256h-44c-48 0-84 38-84 86v384c0 48 36 84 84 84h44c48 0 84-36 84-84z" />
<glyph unicode="&#xf19e;" glyph-name="delete-link" d="M384 512h-170c-70 0-128-58-128-128s58-128 128-128h170v-86h-170c-118 0-214 96-214 214s96 214 214 214h170v-86zM470 256h170c70 0 128 58 128 128s-58 128-128 128h-170v86h170c118 0 214-96 214-214s-96-214-214-214h-170v86zM470 426h84c24 0 44-18 44-42s-20-42-44-42h-84v84zM298 426h86v-84h-86c-24 0-42 18-42 42s18 42 42 42z" />
<glyph unicode="&#xf19f;" glyph-name="document" horiz-adv-x="682" d="M470 726h-384v-684h512v556h-128v128zM86 810h426l170-170v-598c0-48-36-84-84-84h-512c-48 0-86 36-86 84v684c0 48 38 84 86 84zM170 426h342v-84h-342v84zM170 256h342v-86h-342v86z" />
<glyph unicode="&#xf1a0;" glyph-name="equalizer" d="M476 598c18 50 66 84 122 84s102-34 120-84h92c24 0 44-20 44-44s-20-42-44-42h-92c-18-50-64-86-120-86s-104 36-122 86h-434c-24 0-42 18-42 42s18 44 42 44h434zM136 256c18 50 64 86 120 86s102-36 120-86h434c24 0 44-18 44-42s-20-44-44-44h-434c-18-50-64-84-120-84s-102 34-120 84h-94c-24 0-42 20-42 44s18 42 42 42h94zM598 512c24 0 42 18 42 42s-18 44-42 44-44-20-44-44 20-42 44-42zM256 170c24 0 42 20 42 44s-18 42-42 42-42-18-42-42 18-44 42-44z" />
<glyph unicode="&#xf1a2;" glyph-name="file-excel" horiz-adv-x="682" d="M86 810h426l170-170v-598c0-48-36-84-84-84h-512c-48 0-86 36-86 84v684c0 48 38 84 86 84zM470 726h-384v-684h512v556h-128v128zM128 384h128l86-86 84 86h128l-128-128 128-128h-128l-84 86-86-86h-128l128 128z" />
<glyph unicode="&#xf1a3;" glyph-name="file-powerpoint" horiz-adv-x="682" d="M86 810h426l170-170v-598c0-48-36-84-84-84h-512c-48 0-86 36-86 84v684c0 48 38 84 86 84zM476 726h-390v-684h512v562h-122v122zM256 214v-86h-86v342h214c70 0 128-58 128-128s-58-128-128-128h-128zM256 384v-86h128c24 0 42 20 42 44s-18 42-42 42h-128z" />
<glyph unicode="&#xf1a4;" glyph-name="file-word" horiz-adv-x="682" d="M86 810h426l170-170v-598c0-48-36-84-84-84h-512c-48 0-86 36-86 84v684c0 48 38 84 86 84zM470 726h-384v-684h512v556h-128v128zM128 384h86l42-128 42 128h86l42-128 44 128h84l-84-256h-86l-42 128-44-128h-84z" />
<glyph unicode="&#xf1a5;" glyph-name="gear" d="M384 46c-62 8-118 32-166 68l-62-62-62 60 64 62c-36 48-62 106-70 168h-88v84h88c8 62 34 120 70 168l-64 62 62 60 62-62c48 36 104 60 166 68v88h86v-88c62-8 118-32 166-68l62 62 60-60-62-62c36-48 62-106 70-168h88v-84h-88c-8-62-34-120-70-168l62-62-60-60-62 62c-48-36-104-60-166-68v-88h-86v88zM426 170c118 0 214 96 214 214s-96 214-214 214-212-96-212-214 94-214 212-214z" />
<glyph unicode="&#xf1a6;" glyph-name="insert-link" d="M384 512h-170c-70 0-128-58-128-128s58-128 128-128h170v-86h-170c-118 0-214 96-214 214s96 214 214 214h170v-86zM470 256h170c70 0 128 58 128 128s-58 128-128 128h-170v86h170c118 0 214-96 214-214s-96-214-214-214h-170v86zM298 426h256c24 0 44-18 44-42s-20-42-44-42h-256c-24 0-42 18-42 42s18 42 42 42z" />
<glyph unicode="&#xf1a7;" glyph-name="kitchen-cooker" d="M96 42h-10c-48 0-86 38-86 86v512c0 48 38 86 86 86h682c48 0 86-38 86-86v-512c0-48-38-86-86-86h-12c-14-26-42-42-74-42s-60 16-74 42h-364c-14-26-42-42-74-42s-60 16-74 42zM86 640v-512h682v512h-682zM170 384h512v-170h-512v170zM170 554h214v-84h-214v84zM342 342v-44h170v44h-170zM512 470c-24 0-42 18-42 42s18 42 42 42 42-18 42-42-18-42-42-42zM640 470c-24 0-42 18-42 42s18 42 42 42 42-18 42-42-18-42-42-42z" />
<glyph unicode="&#xf1a8;" glyph-name="money" d="M86 682h682c48 0 86-36 86-84v-428c0-48-38-84-86-84h-682c-48 0-86 36-86 84v428c0 48 38 84 86 84zM682 598h-512c0-48-36-86-84-86v-256c48 0 84-38 84-86h512c0 48 38 86 86 86v256c-48 0-86 38-86 86zM256 512h86v-256h-86v256zM512 342c24 0 42 18 42 42s-18 42-42 42-42-18-42-42 18-42 42-42zM512 256c-70 0-128 58-128 128s58 128 128 128 128-58 128-128-58-128-128-128z" />
<glyph unicode="&#xf1a9;" glyph-name="picture" d="M86 640v-512h682v512h-682zM86 726h682c48 0 86-38 86-86v-512c0-48-38-86-86-86h-682c-48 0-86 38-86 86v512c0 48 38 86 86 86zM234 426c-36 0-64 28-64 64s28 64 64 64 64-28 64-64-28-64-64-64zM214 298l84 86 86-86 170 172 128-128v-128h-468v84z" />
<glyph unicode="&#xf1aa;" glyph-name="pot" d="M768 426v-298c0-48-38-86-86-86h-512c-48 0-84 38-84 86v298h-44c-24 0-42 20-42 44s18 42 42 42h768c24 0 44-18 44-42s-20-44-44-44h-42zM170 426v-298h512v298h-512zM384 640v42c0 24 18 44 42 44s44-20 44-44v-42h256c24 0 42-18 42-42s-18-44-42-44h-598c-24 0-42 20-42 44s18 42 42 42h256z" />
<glyph unicode="&#xf1ab;" glyph-name="speaker" horiz-adv-x="512" d="M512 42c0-48-38-84-86-84h-340c-48 0-86 36-86 84v684c0 48 38 84 86 84h340c48 0 86-36 86-84v-684zM256 384c94 0 170 76 170 170s-76 172-170 172-170-78-170-172 76-170 170-170zM256 42c48 0 86 38 86 86s-38 86-86 86-86-38-86-86 38-86 86-86zM256 470c-48 0-86 36-86 84s38 86 86 86 86-38 86-86-38-84-86-84z" />
<glyph unicode="&#xf1ac;" glyph-name="table" d="M86 726h682c48 0 86-38 86-86v-512c0-48-38-86-86-86h-682c-48 0-86 38-86 86v512c0 48 38 86 86 86zM470 298v-170h298v170h-298zM86 298v-170h298v170h-298zM470 554v-170h298v170h-298zM86 554v-170h298v170h-298z" />
<glyph unicode="&#xf1ad;" glyph-name="timeline" horiz-adv-x="768" d="M264 170c18 50 64 86 120 86s102-36 120-86h222l42-42-42-42h-222c-18-50-64-86-120-86s-102 36-120 86h-264l42 42-42 42h264zM384 86c24 0 42 18 42 42s-18 42-42 42-42-18-42-42 18-42 42-42zM470 384l-86-86-86 86h-128c-48 0-84 38-84 86v212c0 48 36 86 84 86h428c48 0 84-38 84-86v-212c0-48-36-86-84-86h-128zM170 682v-212h172l42-44 42 44h172v212h-428z" />
<glyph unicode="&#xf1ae;" glyph-name="underline" horiz-adv-x="512" d="M470 0h-428c-24 0-42 18-42 42s18 44 42 44h428c24 0 42-20 42-44s-18-42-42-42zM512 726v-300c0-142-114-256-256-256s-256 114-256 256v300c0 24 18 42 42 42s44-18 44-42v-300c0-94 76-170 170-170s170 76 170 170v300c0 24 20 42 44 42s42-18 42-42z" />
<glyph unicode="&#xf1af;" glyph-name="watch" horiz-adv-x="512" d="M384 606c76-44 128-128 128-222s-52-178-128-222v-120c0-48-38-84-86-84h-84c-48 0-86 36-86 84v120c-76 44-128 128-128 222s52 178 128 222v120c0 48 38 84 86 84h84c48 0 86-36 86-84v-120zM256 214c94 0 170 76 170 170s-76 170-170 170-170-76-170-170 76-170 170-170zM342 426c24 0 42-18 42-42s-18-42-42-42h-44c-46 0-84 38-84 84v44c0 24 18 42 42 42s42-18 42-42v-44h44z" />
<glyph unicode="&#xf1b0;" glyph-name="watch-alt" horiz-adv-x="512" d="M384 640h42c48 0 86-38 86-86v-340c0-48-38-86-86-86h-42v-86c0-48-38-84-86-84h-84c-48 0-86 36-86 84v86h-42c-48 0-86 38-86 86v340c0 48 38 86 86 86h42v86c0 48 38 84 86 84h84c48 0 86-36 86-84v-86zM86 554v-340h340v340h-340z" />
<glyph unicode="&#xf1b1;" glyph-name="file" horiz-adv-x="682" d="M86 810h426l170-170v-598c0-48-36-84-84-84h-512c-48 0-86 36-86 84v684c0 48 38 84 86 84zM476 726h-390v-684h512v562h-122v122z" />
<glyph unicode="&#xf1b2;" glyph-name="file-audio" horiz-adv-x="682" d="M86 810h426l170-170v-598c0-48-36-84-84-84h-512c-48 0-86 36-86 84v684c0 48 38 84 86 84zM476 726h-390v-684h512v562h-122v122zM470 296v130h-172v-234c0-36-28-64-64-64s-64 28-64 64 28 64 64 64c8 0 16-2 22-4v218c0 24 18 42 42 42h172c24 0 42-18 42-42v-236c0-36-28-64-64-64s-64 28-64 64 28 64 64 64c8 0 16 0 22-2z" />
<glyph unicode="&#xf1b3;" glyph-name="file-image" horiz-adv-x="682" d="M86 810h426l170-170v-598c0-48-36-84-84-84h-512c-48 0-86 36-86 84v684c0 48 38 84 86 84zM476 726h-390v-684h512v562h-122v122zM470 298c-24 0-44 20-44 44s20 42 44 42 42-18 42-42-18-44-42-44zM170 214l132 128 124-128 44 42 42-42v-86h-342v86z" />
<glyph unicode="&#xf1b4;" glyph-name="file-movie" horiz-adv-x="682" d="M86 810h426l170-170v-598c0-48-36-84-84-84h-512c-48 0-86 36-86 84v684c0 48 38 84 86 84zM476 726h-390v-684h512v562h-122v122zM342 342c24 0 42-20 42-44v-128s-18-42-42-42h-128c-24 0-44 18-44 42v128s20 44 44 44h128zM384 234l128 64v-128z" />
<glyph unicode="&#xf1b5;" glyph-name="file-zip" horiz-adv-x="682" d="M86 810h426l170-170v-598c0-48-36-84-84-84h-512c-48 0-86 36-86 84v684c0 48 38 84 86 84zM476 726h-390v-684h512v562h-122v122zM170 726h86v-86h-86v86zM256 640h86v-86h-86v86zM170 554h86v-84h-86v84zM256 470h86v-86h-86v86zM214 298l42 44 42-44v-170h-84v170z" />
<glyph unicode="&#xf1b6;" glyph-name="angry" d="M426-42c-236 0-426 190-426 426s190 426 426 426 428-190 428-426-192-426-428-426zM426 42c188 0 342 154 342 342s-154 342-342 342-340-154-340-342 152-342 340-342zM598 170h-58s-18 114-114 114-114-114-114-114h-56c0 94 76 172 170 172s172-78 172-172zM362 512c10-12 18-28 18-44 0-36-28-64-64-64s-64 28-64 64c0 30 20 54 46 62l-70 26c-12 4-18 16-14 28s16 16 28 12l120-44c12-4 18-16 14-28-2-6-8-10-14-12zM486 512c-6 2-10 6-12 12-4 12 2 24 14 28l120 44c12 4 22 0 26-12s0-24-12-28l-70-26c26-8 46-32 46-62 0-36-28-64-64-64s-64 28-64 64c0 16 6 32 16 44z" />
<glyph unicode="&#xf1b7;" glyph-name="cry" d="M320 384c-36 0-64 28-64 64s28 64 64 64 64-28 64-64-28-64-64-64zM554 214h-42s-14 84-86 84-84-84-84-84h-44c0 70 58 128 128 128s128-58 128-128zM534 384c-36 0-64 28-64 64s28 64 64 64 64-28 64-64-28-64-64-64zM426 42c188 0 342 154 342 342s-154 342-342 342-340-154-340-342 152-342 340-342zM426-42c-236 0-426 190-426 426s190 426 426 426 428-190 428-426-192-426-428-426zM598 256c-24 0-44 18-44 42 0 16 16 44 44 86 28-42 42-70 42-86 0-24-18-42-42-42z" />
<glyph unicode="&#xf1b8;" glyph-name="disappointed" d="M426-42c-236 0-426 190-426 426s190 426 426 426 428-190 428-426-192-426-428-426zM426 42c188 0 342 154 342 342s-154 342-342 342-340-154-340-342 152-342 340-342zM598 170h-58s-18 114-114 114-114-114-114-114h-56c0 94 76 172 170 172s172-78 172-172zM502 504l-32 8v42l170-42v-42l-52 12c6-10 10-22 10-34 0-36-28-64-64-64s-64 28-64 64c0 24 12 46 32 56zM266 482l-52-12v42l170 42v-42l-32-8c20-10 32-32 32-56 0-36-28-64-64-64s-64 28-64 64c0 12 4 24 10 34z" />
<glyph unicode="&#xf1b9;" glyph-name="frowing" d="M426 42c188 0 342 154 342 342s-154 342-342 342-340-154-340-342 152-342 340-342zM426-42c-236 0-426 190-426 426s190 426 426 426 428-190 428-426-192-426-428-426zM598 170h-342c0 94 76 172 170 172s172-78 172-172zM534 426c-36 0-64 28-64 64s28 64 64 64 64-28 64-64-28-64-64-64zM320 426c-36 0-64 28-64 64s28 64 64 64 64-28 64-64-28-64-64-64z" />
<glyph unicode="&#xf1ba;" glyph-name="open-mouth" d="M426 42c188 0 342 154 342 342s-154 342-342 342-340-154-340-342 152-342 340-342zM426-42c-236 0-426 190-426 426s190 426 426 426 428-190 428-426-192-426-428-426zM426 170c-48 0-84 38-84 86s36 86 84 86 86-38 86-86-38-86-86-86zM534 426c-36 0-64 28-64 64s28 64 64 64 64-28 64-64-28-64-64-64zM320 426c-36 0-64 28-64 64s28 64 64 64 64-28 64-64-28-64-64-64z" />
<glyph unicode="&#xf1bb;" glyph-name="rage" d="M426 42c188 0 342 154 342 342s-154 342-342 342-340-154-340-342 152-342 340-342zM426-42c-236 0-426 190-426 426s190 426 426 426 428-190 428-426-192-426-428-426zM598 170h-58s-18 114-114 114-114-114-114-114h-56c0 94 76 172 170 172s172-78 172-172zM534 426c-36 0-64 28-64 64s92 64 128 64v-64c0-36-28-64-64-64zM320 426c-36 0-64 28-64 64v64c36 0 128-28 128-64s-28-64-64-64z" />
<glyph unicode="&#xf1bc;" glyph-name="smile" d="M426-42c-236 0-426 190-426 426s190 426 426 426 428-190 428-426-192-426-428-426zM598 342c0-94-78-172-172-172s-170 78-170 172h342zM426 42c188 0 342 154 342 342s-154 342-342 342-340-154-340-342 152-342 340-342zM320 426c-36 0-64 28-64 64s28 64 64 64 64-28 64-64-28-64-64-64zM534 426c-36 0-64 28-64 64s28 64 64 64 64-28 64-64-28-64-64-64z" />
<glyph unicode="&#xf1bd;" glyph-name="smile-alt" d="M426 42c188 0 342 154 342 342s-154 342-342 342-340-154-340-342 152-342 340-342zM426-42c-236 0-426 190-426 426s190 426 426 426 428-190 428-426-192-426-428-426zM298 342c0-70 58-128 128-128s128 58 128 128h44c0-94-78-172-172-172s-170 78-170 172h42zM320 426c-36 0-64 28-64 64s28 64 64 64 64-28 64-64-28-64-64-64zM534 426c-36 0-64 28-64 64s28 64 64 64 64-28 64-64-28-64-64-64z" />
<glyph unicode="&#xf1be;" glyph-name="tired" d="M426 42c188 0 342 154 342 342s-154 342-342 342-340-154-340-342 152-342 340-342zM426-42c-236 0-426 190-426 426s190 426 426 426 428-190 428-426-192-426-428-426zM264 470l-50 50 34 34 50-50 52 50 34-34-52-50 52-52-34-34-52 52-50-52-34 34zM520 470l-50 50 34 34 50-50 52 50 34-34-52-50 52-52-34-34-52 52-50-52-34 34zM426 170c-48 0-84 38-84 86s36 86 84 86 86-38 86-86-38-86-86-86z" />
<glyph unicode="&#xf1bf;" glyph-name="align-bottom" horiz-adv-x="682" d="M34 86h614c18 0 34-20 34-44s-16-42-34-42h-614c-18 0-34 18-34 42s16 44 34 44zM298 256c0-48-36-86-84-86s-86 38-86 86v426c0 48 38 86 86 86s84-38 84-86v-426zM554 256c0-48-36-86-84-86s-86 38-86 86v256c0 48 38 86 86 86s84-38 84-86v-256z" />
<glyph unicode="&#xf1c0;" glyph-name="align-top" horiz-adv-x="682" d="M34 768h614c18 0 34-18 34-42s-16-44-34-44h-614c-18 0-34 20-34 44s16 42 34 42zM128 512c0 48 38 86 86 86s84-38 84-86v-426c0-48-36-86-84-86s-86 38-86 86v426zM384 512c0 48 38 86 86 86s84-38 84-86v-256c0-48-36-86-84-86s-86 38-86 86v256z" />
<glyph unicode="&#xf1c1;" glyph-name="align-vertically" d="M640 342v-86c0-48-38-86-86-86s-84 38-84 86v86h-86v-202c0-54-38-98-86-98s-84 44-84 98v202h-172c-24 0-42 18-42 42s18 42 42 42h172v202c0 54 36 98 84 98s86-44 86-98v-202h86v86c0 48 36 86 84 86s86-38 86-86v-86h170c24 0 44-18 44-42s-20-42-44-42h-170z" />
<glyph unicode="&#xf1c2;" glyph-name="crop" horiz-adv-x="768" d="M554 42v86h-340c-46 0-86 40-86 86v340h-86c-24 0-42 20-42 44s18 42 42 42h86v86c0 24 18 42 42 42s44-18 44-42v-86h384l84 86 44-44-86-84v-384h86c24 0 42-20 42-44s-18-42-42-42h-86v-86c0-24-18-42-42-42s-44 18-44 42zM554 214v298l-298-298h298zM214 554v-298l298 298h-298z" />
<glyph unicode="&#xf1c3;" glyph-name="difference" horiz-adv-x="768" d="M512 256v-170c0-48-38-86-86-86h-340c-48 0-86 38-86 86v340c0 48 38 86 86 86h170v170c0 48 38 86 86 86h340c48 0 86-38 86-86v-340c0-48-38-86-86-86h-170zM342 512h170v-170h170v340h-340v-170zM86 426v-340h340v170h-170v170h-170z" />
<glyph unicode="&#xf1c5;" glyph-name="distribute-vertically" d="M214 470h426c48 0 86-38 86-86s-38-86-86-86h-426c-48 0-86 38-86 86s38 86 86 86zM42 170h768c24 0 44-18 44-42s-20-42-44-42h-768c-24 0-42 18-42 42s18 42 42 42zM42 682h768c24 0 44-18 44-42s-20-42-44-42h-768c-24 0-42 18-42 42s18 42 42 42z" />
<glyph unicode="&#xf1c6;" glyph-name="eraser" horiz-adv-x="512" d="M512 726v-684c0-48-38-84-86-84h-340c-48 0-86 36-86 84v684c0 48 38 84 86 84h340c48 0 86-36 86-84zM86 726v-172h340v172h-340z" />
<glyph unicode="&#xf1c7;" glyph-name="intersect" horiz-adv-x="768" d="M512 256v-170c0-48-38-86-86-86h-340c-48 0-86 38-86 86v340c0 48 38 86 86 86h170v170c0 48 38 86 86 86h340c48 0 86-38 86-86v-340c0-48-38-86-86-86h-170zM298 298h172v172h-172v-172z" />
<glyph unicode="&#xf1c8;" glyph-name="mask" horiz-adv-x="768" d="M86 768h596c48 0 86-38 86-86v-596c0-48-38-86-86-86h-596c-48 0-86 38-86 86v596c0 48 38 86 86 86zM682 86c0 330-266 596-596 596v-596h596z" />
<glyph unicode="&#xf1c9;" glyph-name="scale" horiz-adv-x="768" d="M336 128c-18-74-86-128-166-128-94 0-170 76-170 170 0 80 54 148 128 166v6c0 88 54 164 130 196 12 130 122 230 254 230 142 0 256-114 256-256 0-132-100-242-230-254-32-76-108-130-196-130h-6zM346 554c114-2 206-94 208-208 74 18 128 86 128 166 0 94-76 170-170 170-80 0-148-54-166-128zM336 214h6c70 0 128 58 128 128s-58 128-128 128-128-58-128-128v-6c60-16 106-62 122-122zM170 86c48 0 86 36 86 84s-38 86-86 86-84-38-84-86 36-84 84-84z" />
<glyph unicode="&#xf1ca;" glyph-name="subtract" horiz-adv-x="768" d="M512 256v-170c0-48-38-86-86-86h-340c-48 0-86 38-86 86v340c0 48 38 86 86 86h170v170c0 48 38 86 86 86h340c48 0 86-38 86-86v-340c0-48-38-86-86-86h-170zM342 342h340v340h-340v-340z" />
<glyph unicode="&#xf1cb;" glyph-name="text-align-center" horiz-adv-x="682" d="M640 598h-598c-24 0-42 18-42 42s18 42 42 42h598c24 0 42-18 42-42s-18-42-42-42zM554 426h-426c-24 0-42 20-42 44s18 42 42 42h426c24 0 44-18 44-42s-20-44-44-44zM640 256h-598c-24 0-42 18-42 42s18 44 42 44h598c24 0 42-20 42-44s-18-42-42-42zM554 86h-426c-24 0-42 18-42 42s18 42 42 42h426c24 0 44-18 44-42s-20-42-44-42z" />
<glyph unicode="&#xf1cc;" glyph-name="text-align-left" horiz-adv-x="682" d="M640 598h-598c-24 0-42 18-42 42s18 42 42 42h598c24 0 42-18 42-42s-18-42-42-42zM470 426h-428c-24 0-42 20-42 44s18 42 42 42h428c24 0 42-18 42-42s-18-44-42-44zM640 256h-598c-24 0-42 18-42 42s18 44 42 44h598c24 0 42-20 42-44s-18-42-42-42zM470 86h-428c-24 0-42 18-42 42s18 42 42 42h428c24 0 42-18 42-42s-18-42-42-42z" />
<glyph unicode="&#xf1cd;" glyph-name="text-align-right" horiz-adv-x="682" d="M640 598h-598c-24 0-42 18-42 42s18 42 42 42h598c24 0 42-18 42-42s-18-42-42-42zM640 426h-426c-24 0-44 20-44 44s20 42 44 42h426c24 0 42-18 42-42s-18-44-42-44zM640 256h-598c-24 0-42 18-42 42s18 44 42 44h598c24 0 42-20 42-44s-18-42-42-42zM640 86h-426c-24 0-44 18-44 42s20 42 44 42h426c24 0 42-18 42-42s-18-42-42-42z" />
<glyph unicode="&#xf1ce;" glyph-name="union" horiz-adv-x="768" d="M512 256v-170c0-48-38-86-86-86h-340c-48 0-86 38-86 86v340c0 48 38 86 86 86h170v170c0 48 38 86 86 86h340c48 0 86-38 86-86v-340c0-48-38-86-86-86h-170zM426 342h256v340h-340v-256h-256v-340h340v256z" />
<glyph unicode="&#xf1cf;" glyph-name="distribute-horizontally" horiz-adv-x="598" d="M86 0c0-24-20-42-44-42s-42 18-42 42v768c0 24 18 42 42 42s44-18 44-42v-768zM598 0c0-24-20-42-44-42s-42 18-42 42v768c0 24 18 42 42 42s44-18 44-42v-768zM384 170c0-48-38-84-86-84s-84 36-84 84v428c0 48 36 84 84 84s86-36 86-84v-428z" />
<glyph unicode="&#xf1d0;" glyph-name="step-backward" horiz-adv-x="768" d="M342 256v426h-300c-24 0-42 20-42 44s18 42 42 42h684c24 0 42-18 42-42s-18-44-42-44h-300v-426h96c6 0 12-2 18-6 14-10 20-28 10-42l-140-194c-2-4-4-6-8-8-14-10-34-6-44 8l-140 194c-4 6-4 12-4 18 0 16 14 30 32 30h96zM726 512c24 0 42-18 42-42s-18-44-42-44h-214v86h214zM214 512h42v-86h-214c-24 0-42 20-42 44s18 42 42 42h172z" />
<glyph unicode="&#xf1d1;" glyph-name="step-forward" horiz-adv-x="768" d="M426 512v-426h300c24 0 42-20 42-44s-18-42-42-42h-684c-24 0-42 18-42 42s18 44 42 44h300v426h-96c-18 0-32 14-32 30 0 6 0 12 4 18l140 194c10 14 30 18 44 8 4-2 6-4 8-8l140-194c10-14 4-32-10-42-6-4-12-6-18-6h-96zM726 342c24 0 42-20 42-44s-18-42-42-42h-214v86h214zM214 342h42v-86h-214c-24 0-42 18-42 42s18 44 42 44h172z" />
<glyph unicode="&#xf1d2;" glyph-name="comment-o" horiz-adv-x="768" d="M86 0v178c-54 62-86 142-86 228 0 200 172 362 384 362s384-162 384-362-172-364-384-364c-74 0-144 20-202 54zM384 128c164 0 298 124 298 278s-134 276-298 276-298-122-298-276 134-278 298-278z" />
<glyph unicode="&#xf1d3;" glyph-name="codepen" d="M854 254v-4l-2-2v-6l-2-2v-2l-2-2v-2l-6-6v-2h-2l-2-2-390-260c-6-4-14-6-22-6s-14 2-20 6l-390 260-2 2h-2l-4 4v2l-4 4v2l-2 2v4c0 2-2 2-2 4v272c0 2 2 2 2 4v4l2 2v2l4 4v2l4 4h2l2 2 390 260c12 8 30 8 42 0l390-260 2-2h2v-2l6-6v-2l2-2v-2l2-2v-6l2-2v-264zM74 446v-124l92 62zM390 534v172l-288-192 130-86zM750 514l-286 192v-172l158-106zM102 254l288-192v172l-158 106zM464 234v-172l286 192-128 86zM426 470l-130-86 130-86 130 86zM780 322v124l-92-62z" />
<glyph unicode="&#xf1d4;" glyph-name="facebook" d="M586-42v330h110l18 128h-128v82c0 38 10 64 64 64h68v114c-12 2-52 6-100 6-98 0-166-60-166-170v-96h-110v-128h110v-330h-404c-26 0-48 20-48 46v760c0 26 22 46 48 46h758c26 0 48-20 48-46v-760c0-26-22-46-48-46h-220z" />
<glyph unicode="&#xf1d5;" glyph-name="git" d="M838 422l-374 372c-22 22-56 22-78 0l-76-76 98-98c22 8 48 2 66-16s24-46 16-68l94-94c22 8 50 2 68-16 26-26 26-66 0-92s-66-26-92 0c-20 20-24 46-14 70l-88 88v-232c6-4 10-6 16-12 26-26 26-66 0-92s-66-26-92 0-26 66 0 92c6 6 14 10 22 14v234c-8 4-16 8-22 14-20 20-24 48-14 72l-96 98-256-256c-22-22-22-56 0-78l372-372c22-22 56-22 78 0l372 370c22 22 22 56 0 78z" />
<glyph unicode="&#xf1d6;" glyph-name="github" d="M426 810v0c236 0 428-190 428-426 0-188-124-348-292-404-22-4-28 8-28 20v116c0 40-12 66-28 80 94 10 194 46 194 210 0 46-16 86-44 116 4 10 20 54-4 112 0 0-36 12-118-44-34 10-70 14-106 14s-72-4-106-14c-82 54-118 44-118 44-24-58-8-102-4-112-28-30-44-70-44-116 0-164 100-200 194-210-12-10-24-30-28-58-24-12-86-28-124 36-8 12-32 44-66 44-36 0-12-20 2-28 18-10 40-48 44-60 8-24 34-72 142-52 0-36 2-68 2-78 0-12-8-24-30-20-170 56-292 216-292 404 0 236 190 426 426 426z" />
<glyph unicode="&#xf1d7;" glyph-name="github-alt" d="M784 548v0c44-46 70-108 70-180 0-274-180-336-428-336s-426 62-426 336c0 72 26 134 70 180-6 18-30 84 6 176 0 0 56 18 184-70 54 14 110 18 166 18s114-4 168-18c128 86 184 70 184 70 36-92 12-158 6-176zM426 84v0c176 0 320 8 320 178 0 42-20 80-54 112-58 52-156 24-266 24s-206 28-264-24c-34-32-54-72-54-112 0-170 142-178 318-178zM292 352v0c36 0 64-44 64-96s-28-94-64-94-64 42-64 94 28 96 64 96zM560 352v0c36 0 64-44 64-96s-28-94-64-94-64 42-64 94 28 96 64 96z" />
<glyph unicode="&#xf1d8;" glyph-name="google" horiz-adv-x="836" d="M426 302v160h400c6-26 10-52 10-88 0-244-164-416-410-416-236 0-426 190-426 426s190 426 426 426c116 0 212-40 286-110l-122-118c-30 30-84 62-164 62-142 0-256-116-256-260s114-262 256-262c164 0 224 114 236 180h-236z" />
<glyph unicode="&#xf1d9;" glyph-name="google-plus" d="M272 408h256c2-14 4-28 4-46 0-156-104-266-260-266-150 0-272 122-272 272s122 272 272 272c74 0 134-26 182-70l-74-72c-20 20-56 42-108 42-92 0-168-78-168-172s76-170 168-170c108 0 148 76 154 116h-154v94zM854 408v-78h-78v-78h-78v78h-78v78h78v76h78v-76h78z" />
<glyph unicode="&#xf1da;" glyph-name="instagram" d="M426 810c116 0 130 0 176-2s76-10 104-20 52-24 76-48 38-48 48-76 18-58 20-104 4-60 4-176-2-130-4-176-10-76-20-104-24-52-48-76-48-38-76-48-58-18-104-20-60-2-176-2-130 0-176 2-74 10-102 20-52 24-76 48-40 48-50 76-18 58-20 104-2 60-2 176 0 130 2 176 10 76 20 104 26 52 50 76 48 38 76 48 56 18 102 20 60 2 176 2zM426 734c-114 0-128 0-172-2-42-2-62-10-78-16-20-8-36-18-50-32s-24-28-32-48c-6-16-12-38-14-80-2-44-4-58-4-172s2-128 4-172c2-42 8-64 14-80 8-20 18-34 32-48s30-24 50-32c16-6 36-14 78-16 44-2 58-2 172-2s130 0 174 2c42 2 62 10 78 16 20 8 36 18 50 32s24 28 32 48c6 16 12 38 14 80 2 44 2 58 2 172s0 128-2 172c-2 42-8 64-14 80-8 20-18 34-32 48s-30 24-50 32c-16 6-36 14-78 16-44 2-60 2-174 2zM426 242c78 0 142 64 142 142s-64 142-142 142-142-64-142-142 64-142 142-142zM426 604c122 0 220-98 220-220s-98-220-220-220-218 98-218 220 96 220 218 220zM706 612c0-28-24-52-52-52s-50 24-50 52 22 50 50 50 52-22 52-50z" />
<glyph unicode="&#xf1db;" glyph-name="pinterest" d="M426 810c-236 0-426-190-426-426 0-180 114-336 272-398-4 34-8 88 0 124 8 34 50 212 50 212s-12 24-12 62c0 60 36 104 78 104 36 0 54-28 54-60 0-36-24-92-36-142-10-42 20-78 62-78 76 0 136 80 136 196 0 102-76 174-180 174-122 0-192-92-192-186 0-36 14-74 32-96 4-4 4-8 2-12-4-14-8-44-10-50-2-8-8-10-16-6-54 24-86 104-86 166 0 134 98 258 282 258 148 0 264-106 264-246 0-148-94-266-222-266-44 0-84 24-98 50 0 0-20-82-26-102-10-38-36-84-54-112 40-12 82-18 126-18 236 0 428 190 428 426s-192 426-428 426z" />
<glyph unicode="&#xf1dc;" glyph-name="pocket" d="M850 718c4-8 4-20 4-28v-256l-4-52c-12-116-72-218-166-290-2-2-4-2-6-4v0c-48-36-102-60-160-72h-2c-4 0-6-2-10-2-26-4-52-8-78-8-28 0-58 2-86 8-60 12-116 38-166 74h-2l-4 4c-94 70-156 174-168 290l-2 52v256c0 10 2 20 6 28 12 30 40 50 72 50h698c32 0 62-20 74-50zM668 448c24 22 24 60 2 84s-58 24-82 2l-160-154-162 154c-24 22-60 22-82-2s-22-62 2-84l200-192c12-10 28-16 42-16s28 6 40 16z" />
<glyph unicode="&#xf1dd;" glyph-name="twitter" d="M268 32c322 0 498 266 498 498v22c34 24 64 56 88 92-32-14-66-24-102-28 36 22 64 56 78 96-34-20-72-34-112-42-32 34-78 56-128 56-96 0-174-80-174-176 0-14 2-28 4-40-146 8-274 78-360 184-16-26-24-56-24-88 0-60 32-114 78-146-28 2-56 10-80 22v-4c0-84 60-154 140-170-14-4-30-8-46-8-12 0-22 2-32 4 22-70 88-120 164-122-60-48-136-74-218-74-14 0-28 0-42 2 78-50 170-78 268-78z" />
<glyph unicode="&#xf1de;" glyph-name="wordpress" d="M426 810c236 0 428-190 428-426s-192-426-428-426-426 190-426 426 190 426 426 426zM426-24c224 0 408 184 408 408s-184 408-408 408-406-184-406-408 182-408 406-408zM60 384c0 54 12 102 32 148l174-478c-122 60-206 186-206 330zM674 402c0-32-12-68-28-118l-36-122-132 394c22 2 40 4 40 4 20 2 18 32-2 30 0 0-58-6-96-6-36 0-98 6-98 6-20 2-22-28-2-30 0 0 18-2 38-4l58-156-80-240-134 396c22 2 42 4 42 4 20 2 18 32-2 30 0 0-60-6-98-6-6 0-16 2-24 2 66 100 178 164 306 164 96 0 182-36 248-96h-4c-36 0-62-30-62-64 0-30 18-56 36-86 14-24 30-56 30-102zM434 352l112-308c0-2 2-4 2-6-38-14-80-20-122-20-36 0-70 4-102 14zM748 560c2-12 2-24 2-38 0-38-8-80-28-132l-112-322c108 64 182 180 182 316 0 64-16 124-44 176z" />
<glyph unicode="&#xf1df;" glyph-name="wordpress-alt" d="M764 568v0c2-12 2-26 2-40 0-38-8-82-30-136l-116-340c114 66 190 190 190 332 0 66-16 130-46 184zM480 564l138-412 38 128c16 54 30 92 30 124 0 48-18 80-32 106-20 32-38 58-38 90 0 36 26 68 64 68 2 0 4-2 6-2-68 62-160 102-260 102-134 0-252-70-320-174h24c40 0 104 6 104 6 20 2 22-30 2-32 0 0-20-2-44-4l140-416 84 252-60 164-40 4c-20 2-18 34 2 32 0 0 62-6 100-6 40 0 102 6 102 6 20 2 24-30 4-32 0 0-20-2-44-4zM426 0v0c44 0 88 8 128 22-2 2-2 4-2 6l-118 322-116-334c34-10 70-16 108-16zM44 384v0c0-152 88-284 216-346l-184 502c-22-48-32-100-32-156zM426 810v0c236 0 428-190 428-426s-192-426-428-426-426 190-426 426 190 426 426 426z" />
<glyph unicode="&#xf1e0;" glyph-name="youtube" d="M338 272l232 120-232 120v-240zM844 554v0s10-68 10-138v-66c0-70-10-138-10-138s-8-58-34-84c-32-34-68-34-84-36-120-8-300-10-300-10s-222 4-290 10c-18 4-62 2-94 36-26 26-34 84-34 84s-8 68-8 138v66c0 70 8 138 8 138s8 58 34 84c32 34 70 34 86 36 120 8 298 8 298 8v0s180 0 300-8c16-2 52-2 84-36 26-26 34-84 34-84z" />
<glyph unicode="&#xf1e1;" glyph-name="messanger" horiz-adv-x="844" d="M466 282l232 244-210-116-110 112-230-244 210 116zM422 810v0c234 0 422-176 422-394s-188-396-422-396c-42 0-82 8-120 18l-146-80v150c-96 72-156 184-156 308 0 218 188 394 422 394z" />
<glyph unicode="&#xf1e2;" glyph-name="activity" horiz-adv-x="598" d="M256 86c0-24-18-44-42-44s-44 20-44 44v468c0 24 20 44 44 44s42-20 42-44v-468zM86 86c0-24-20-44-44-44s-42 20-42 44v298c0 24 18 42 42 42s44-18 44-42v-298zM342 86v384c0 24 18 42 42 42s42-18 42-42v-384c0-24-18-44-42-44s-42 20-42 44zM512 682c0 24 18 44 42 44s44-20 44-44v-596c0-24-20-44-44-44s-42 20-42 44v596z" />
<glyph unicode="&#xf1e3;" glyph-name="bolt" horiz-adv-x="512" d="M512 810l-256-298h214l-384-554 84 384h-170l170 468h342z" />
<glyph unicode="&#xf1e4;" glyph-name="picture-square" horiz-adv-x="768" d="M86 682v-596h596v596h-596zM86 768h596c48 0 86-38 86-86v-596c0-48-38-86-86-86h-596c-48 0-86 38-86 86v596c0 48 38 86 86 86zM234 470c-36 0-64 28-64 64s28 64 64 64 64-28 64-64-28-64-64-64zM170 298l86 86 86-86 128 128 128-128v-128h-428v128z" />
<glyph unicode="&#xf1e5;" glyph-name="text-align-justify" horiz-adv-x="682" d="M640 598h-598c-24 0-42 18-42 42s18 42 42 42h598c24 0 42-18 42-42s-18-42-42-42zM640 426h-598c-24 0-42 20-42 44s18 42 42 42h598c24 0 42-18 42-42s-18-44-42-44zM640 256h-598c-24 0-42 18-42 42s18 44 42 44h598c24 0 42-20 42-44s-18-42-42-42zM640 86h-598c-24 0-42 18-42 42s18 42 42 42h598c24 0 42-18 42-42s-18-42-42-42z" />
<glyph unicode="&#xf1e6;" glyph-name="add-cart" horiz-adv-x="682" d="M170 214h342c24 0 42-20 42-44s-18-42-42-42h-384c-24 0-42 18-42 42v556h-44c-24 0-42 18-42 42s18 42 42 42h86c24 0 42-18 42-42v-384h376l52 214v84c48 0 84-36 84-84 0-6 0-14-2-20l-48-212c-8-40-44-68-86-68h-376v-84zM150-42c-36 0-64 28-64 64s28 64 64 64 64-28 64-64-28-64-64-64zM534-42c-36 0-64 28-64 64s28 64 64 64 64-28 64-64-28-64-64-64zM426 682h44c24 0 42-18 42-42s-18-42-42-42h-44v-44c0-24-18-42-42-42s-42 18-42 42v44h-44c-24 0-42 18-42 42s18 42 42 42h44v44c0 24 18 42 42 42s42-18 42-42v-44z" />
<glyph unicode="&#xf1e7;" glyph-name="cage" horiz-adv-x="682" d="M426 710c100-36 172-128 172-240v-384h20c36 0 64-28 64-64s-28-64-64-64h-554c-36 0-64 28-64 64s28 64 64 64h22v384c0 112 70 204 170 240v16c0 48 38 84 86 84s84-36 84-84v-16zM512 426h-128v-128h128v128zM512 512c-16 62-66 112-128 128v-128h128zM170 426v-128h128v128h-128zM170 512h128v128c-62-16-112-66-128-128zM512 214h-128v-128h128v128zM170 214v-128h128v128h-128z" />
<glyph unicode="&#xf1e8;" glyph-name="cart" horiz-adv-x="682" d="M170 214h342c24 0 42-20 42-44s-18-42-42-42h-384c-24 0-42 18-42 42v556h-44c-24 0-42 18-42 42s18 42 42 42h86c24 0 42-18 42-42v-86h424c48 0 88-36 88-84 0-6 0-14-2-20l-48-212c-8-40-44-68-86-68h-376v-84zM150-42c-36 0-64 28-64 64s28 64 64 64 64-28 64-64-28-64-64-64zM534-42c-36 0-64 28-64 64s28 64 64 64 64-28 64-64-28-64-64-64zM170 598v-214h378l50 214h-428z" />
<glyph unicode="&#xf1e9;" glyph-name="credit-card" d="M86 726h682c48 0 86-38 86-86v-512c0-48-38-86-86-86h-682c-48 0-86 38-86 86v512c0 48 38 86 86 86zM86 640v-128h682v128h-682zM86 426v-298h682v298h-682zM170 298h172v-84h-172v84zM426 298h172v-84h-172v84z" />
<glyph unicode="&#xf1ea;" glyph-name="gift" horiz-adv-x="768" d="M682 384v-342c0-48-36-84-84-84h-428c-48 0-84 36-84 84v342c-48 0-86 38-86 86v84c0 48 38 86 86 86h50c-4 14-8 28-8 42 0 70 58 128 128 128s128-58 128-128c0 70 58 128 128 128s128-58 128-128c0-14-4-28-8-42h50c48 0 86-38 86-86v-84c0-48-38-86-86-86zM342 554h-256v-84h256v84zM426 554v-84h256v84h-256zM170 384v-342h428v342h-428zM256 640h42v42c0 24-18 44-42 44s-42-20-42-44 18-42 42-42zM512 640c24 0 42 18 42 42s-18 44-42 44-42-20-42-44v-42h42z" />
<glyph unicode="&#xf1eb;" glyph-name="remove-cart" horiz-adv-x="682" d="M170 214h342c24 0 42-20 42-44s-18-42-42-42h-384c-24 0-42 18-42 42v556h-44c-24 0-42 18-42 42s18 42 42 42h86c24 0 42-18 42-42v-384h376l52 214v84c48 0 84-36 84-84 0-6 0-14-2-20l-48-212c-8-40-44-68-86-68h-376v-84zM150-42c-36 0-64 28-64 64s28 64 64 64 64-28 64-64-28-64-64-64zM534-42c-36 0-64 28-64 64s28 64 64 64 64-28 64-64-28-64-64-64zM470 682c24 0 42-18 42-42s-18-42-42-42h-172c-24 0-42 18-42 42s18 42 42 42h172z" />
<glyph unicode="&#xf1ec;" glyph-name="shopping-bag" horiz-adv-x="768" d="M214 554v128c0 48 36 86 84 86h172c48 0 84-38 84-86v-128h128c48 0 86-36 86-84v-384c0-48-38-86-86-86h-596c-48 0-86 38-86 86v384c0 48 38 84 86 84h128zM86 470v-384h596v384h-128v-128h-84v128h-172v-128h-84v128h-128zM298 554h172v128h-172v-128z" />
<glyph unicode="&#xf1ed;" glyph-name="truck" d="M342 128c0-70-58-128-128-128s-128 58-128 128c-48 0-86 38-86 86v426c0 48 38 86 86 86h468c48 0 86-38 86-86h128c86 0 86-122 86-170v-256c0-48-38-86-86-86h-42c0-70-58-128-128-128s-128 58-128 128h-128zM86 640v-384h468v384h-468zM640 554v-170h128v170h-128zM598 86c24 0 42 18 42 42s-18 42-42 42-44-18-44-42 20-42 44-42zM214 86c24 0 42 18 42 42s-18 42-42 42-44-18-44-42 20-42 44-42z" />
<glyph unicode="&#xf1ee;" glyph-name="wallet" d="M768 512c46 0 86-40 86-86v-84c0-46-40-86-86-86v-128c0-48-38-86-86-86h-596c-48 0-86 38-86 86v512c0 48 38 86 86 86h596c48 0 86-38 86-86v-128zM682 512v128h-596v-512h596v128h-84c-46 0-86 48-86 86v84c0 48 40 86 86 86h84zM598 342h84v84h-84v-84z" />
<glyph unicode="&#xf1ef;" glyph-name="moon" horiz-adv-x="682" d="M382 768c-104-58-172-170-172-298 0-188 150-342 336-342 48 0 94 10 136 30-68-96-178-158-304-158-208 0-378 172-378 384s170 384 378 384h4z" />
<glyph unicode="&#xf1f0;" glyph-name="sunny-o" d="M426 128c-142 0-256 114-256 256s114 256 256 256 256-114 256-256-114-256-256-256zM426 214c94 0 172 76 172 170s-78 170-172 170-170-76-170-170 76-170 170-170zM384 810h86v-128h-86v128zM0 426h128v-84h-128v84zM726 426h128v-84h-128v84zM384 86h86v-128h-86v128zM710 726l60-62-90-90-62 60zM618 152l62 62 90-92-60-60zM176 214l60-62-90-90-60 60zM86 664l60 62 90-92-60-60z" />
<glyph unicode="&#xf1f1;" glyph-name="sunrise" d="M810 256h-768c-24 0-42 18-42 42s18 44 42 44h44c0 188 152 340 340 340s342-152 342-340h42c24 0 44-20 44-44s-20-42-44-42zM682 86h-512c-24 0-42 18-42 42s18 42 42 42h512c24 0 44-18 44-42s-20-42-44-42zM170 342h512c0 142-114 256-256 256s-256-114-256-256z" />
<glyph unicode="&#xf1f2;" glyph-name="umbrella" horiz-adv-x="768" d="M426 42c0-48-36-84-84-84s-86 36-86 84 38 86 86 86v214h-342c0 198 150 358 342 380v46c0 24 18 42 42 42s42-18 42-42v-46c192-22 342-182 342-380h-342v-300zM98 426h572c-36 124-150 214-286 214s-250-90-286-214z" />
<glyph unicode="&#xf1f3;" glyph-name="target" d="M766 342c-20-154-142-276-296-296v-88h-86v88c-154 20-276 142-296 296h-88v84h88c20 154 142 276 296 296v88h86v-88c154-20 276-142 296-296h88v-84h-88zM426 128c142 0 256 114 256 256s-114 256-256 256-256-114-256-256 114-256 256-256zM426 256c-70 0-128 58-128 128s58 128 128 128 128-58 128-128-58-128-128-128z" />
<glyph unicode="&#xf1f5;" glyph-name="smile-plus" d="M342-42c-188 0-342 152-342 340s154 342 342 342 340-154 340-342-152-340-340-340zM342 42c142 0 256 114 256 256s-114 256-256 256-256-114-256-256 114-256 256-256zM470 256c0-70-58-128-128-128s-128 58-128 128h256zM256 342c-24 0-42 18-42 42s18 42 42 42 42-18 42-42-18-42-42-42zM426 342c-24 0-42 18-42 42s18 42 42 42 44-18 44-42-20-42-44-42zM768 726h42c24 0 44-20 44-44s-20-42-44-42h-42v-42c0-24-18-44-42-44s-44 20-44 44v42h-42c-24 0-42 18-42 42s18 44 42 44h42v42c0 24 20 42 44 42s42-18 42-42v-42z" />
<glyph unicode="&#xf1f6;" glyph-name="smile-heart" d="M342-42c-188 0-342 152-342 340s154 342 342 342 340-154 340-342-152-340-340-340zM342 42c142 0 256 114 256 256s-114 256-256 256-256-114-256-256 114-256 256-256zM470 256c0-70-58-128-128-128s-128 58-128 128h256zM256 342c-24 0-42 18-42 42s18 42 42 42 42-18 42-42-18-42-42-42zM426 342c-24 0-42 18-42 42s18 42 42 42 44-18 44-42-20-42-44-42zM710 554c-36 8-144 68-144 176 0 44 36 80 80 80 26 0 50-12 64-32 14 20 38 32 64 32 44 0 80-36 80-80 0-108-108-168-144-176z" />
<glyph unicode="&#xf1f7;" glyph-name="beginner" horiz-adv-x="768" d="M384 574l-298 104v-442l298-138v476zM112 764l272-96 272 96c44 16 94-10 108-56 2-10 4-20 4-30v-442c0-36-20-68-50-82l-334-154-334 154c-30 14-50 46-50 82v442c0 50 38 90 86 90 10 0 18 0 26-4z" />
<glyph unicode="&#xf1f8;" glyph-name="train" horiz-adv-x="682" d="M470 88c-42-2-86-2-130-2s-86 0-126 2v-88h-128v42l30 62c-70 20-116 62-116 152v342c0 170 170 170 342 170s340 0 340-170v-342c0-90-46-132-116-152l32-62v-42h-128v88zM128 214c24 0 42 18 42 42s-18 42-42 42-42-18-42-42 18-42 42-42zM554 214c24 0 44 18 44 42s-20 42-44 42-42-18-42-42 18-42 42-42zM86 640v-256h512v256h-512z" />
<glyph unicode="&#xf1f9;" glyph-name="donut" d="M426 214c94 0 172 76 172 170s-78 170-172 170-170-76-170-170 76-170 170-170zM426-42c-236 0-426 190-426 426s190 426 426 426 428-190 428-426-192-426-428-426zM426 726v-86h86v86h-86zM682 512v-86h86v86h-86zM128 298c24 0 42 20 42 44s-18 42-42 42-42-18-42-42 18-44 42-44zM298 598c24 0 44 18 44 42s-20 42-44 42-42-18-42-42 18-42 42-42zM640 554c24 0 42 20 42 44s-18 42-42 42-42-18-42-42 18-44 42-44zM726 256c24 0 42 18 42 42s-18 44-42 44-44-20-44-44 20-42 44-42zM554 170v-84h86v84h-86zM384 42c24 0 42 20 42 44s-18 42-42 42-42-18-42-42 18-44 42-44zM170 214v-86h86v86h-86zM128 554v-84h86v84h-86z" />
<glyph unicode="&#xf1fa;" glyph-name="rice-cracker" d="M426-42c-236 0-426 190-426 426s190 426 426 426 428-190 428-426-192-426-428-426zM214 118v308h426v-308c78 62 128 158 128 266 0 188-154 342-342 342s-340-154-340-342c0-108 50-204 128-266z" />
<glyph unicode="&#xf1fb;" glyph-name="apron" horiz-adv-x="682" d="M242 554l-42-256h-114v-256h512v256h-116l-42 256h-198zM256 768v-128h170v128c0 24 20 42 44 42s42-18 42-42v-128l42-256h44c48 0 84-38 84-86v-256c0-48-36-84-84-84h-512c-48 0-86 36-86 84v256c0 48 38 86 86 86h42l42 256v128c0 24 20 42 44 42s42-18 42-42zM170 214h342v-86h-342v86z" />
<glyph unicode="&#xf1fc;" glyph-name="octpus" horiz-adv-x="682" d="M470 76v-76c0-24-20-42-44-42s-42 18-42 42v86h-86v-86c0-24-18-42-42-42s-42 18-42 42v76c-22-20-54-34-86-34-70 0-128 58-128 128 0 24 18 44 42 44s44-20 44-44 18-42 42-42 42 18 42 42v96c-78 54-128 144-128 246 0 164 136 298 300 298s298-134 298-298c0-102-50-192-128-246v-96c0-24 18-42 42-42s44 18 44 42 18 44 42 44 42-20 42-44c0-70-58-128-128-128-32 0-62 14-84 34z" />
<glyph unicode="&#xf1fd;" glyph-name="squid" horiz-adv-x="682" d="M170 470l-84 84 256 256 256-256-86-84v-300c0-24 18-42 42-42s44 18 44 42 18 44 42 44 42-20 42-44c0-70-58-128-128-128-32 0-62 14-84 34v-76c0-24-20-42-44-42s-42 18-42 42v86h-86v-86c0-24-18-42-42-42s-42 18-42 42v76c-22-20-54-34-86-34-70 0-128 58-128 128 0 24 18 44 42 44s44-20 44-44 18-42 42-42 42 18 42 42v300z" />
</font>
</defs>
</svg>
